<svg xmlns="http://www.w3.org/2000/svg" style="enable-background:new 0 0 512 512" xml:space="preserve" width="512" height="512"><ellipse style="fill:#ffd4be" cx="474.5" cy="291.052" rx="30" ry="35"/><path style="fill:#ffd4be" d="M484.5 257.56c0 80.24-44.77 145.29-100 145.29s-100-65.05-100-145.29 44.77-145.3 100-145.3c37.47 0 70.13 29.95 87.25 74.27.967 2.5-7.346 4.467-6.48 7.056.907 2.712 10.987 6.05 11.77 8.854 1.42 4.99 2.65 10.12 3.67 15.37.486 2.484-6.604 4.227-6.21 6.762.409 2.63 8.299 6.055 8.61 8.738.92 7.89 1.39 15.99 1.39 24.25z"/><path style="fill:#ffbf9e" d="M465.27 343.21c-18.17 36.15-47.58 59.64-80.77 59.64-55.23 0-100-65.05-100-145.29s44.77-145.3 100-145.3c16.06 0 31.24 5.5 44.69 15.28-2.35 17.19-3.61 35.27-3.61 53.93 0 65.61 15.52 124.04 39.69 161.74z"/><path style="fill:#f9d171" d="M423.451 127.5h-90v-75c0-24.853 20.147-45 45-45s45 20.147 45 45v75z"/><path style="fill:#f9d171" d="M461.952 165.646c-32.86-20.66-83.502-7.466-83.502-7.466-77.718-60.472-112.972-106.882 0-104.21h15c31.009 0 61.953 10 74.414 29.746 23.891 37.859-5.912 81.93-5.912 81.93z"/><path style="fill:#fff8e6" d="M486.081 313.348c-40.01 5.812-74.901.759-101.581-23.417-42.079 34.785-57.749 90.194-6.049 131.483 0 0 29.269 7.274 39.414-6.551 11.828 13.9 25.11 21.747 39.271 25.942 4.101 1.215 8.515-.254 11.02-3.721 9.919-13.729 32.149-53.86 17.925-123.736z"/><path style="fill:#fff1cf" d="M478.02 359.15c-9.975 13.824-33.03 17.587-49 10.7-21.258-9.167-16.549-29.65 2.864-33.342 7.313-1.39 23.691-14.447 23.691-14.447s10.585-5.822 30.505-8.712c2.31 11.331.93 33.343-8.06 45.801z"/><path style="fill:#fff8e6" d="M486.081 313.348c-5.215-9.861-16.739-14.038-25.474-11.064-17.925 6.102-13.072 22.419-32.076 37.036-6.04 4.646-3.769 14.257 3.677 15.876 12.014 2.613 25.625 1.076 36.325-7.664 15.064-12.306 17.548-34.184 17.548-34.184z"/><path style="fill:#fff1cf" d="M417.27 415.61c-10.63 12.81-38.82 5.8-38.82 5.8-51.7-41.28-36.03-96.69 6.05-131.48 7.39 6.7 15.41 11.93 24 15.86-4.71 13.86-7.29 28.99-7.29 44.84 0 23.93 5.9 46.24 16.06 64.98z"/><path style="fill:#f9d171" d="M428.451 67.5h-100c-8.284 0-15-6.716-15-15 0-8.284 6.716-15 15-15h100c8.284 0 15 6.716 15 15 0 8.284-6.716 15-15 15z"/><ellipse style="fill:#ffd4be" cx="37.5" cy="291.052" rx="30" ry="35"/><path style="fill:#ffd4be" d="M27.5 257.56c0 80.24 44.77 145.29 100 145.29s100-65.05 100-145.29-44.77-145.3-100-145.3c-37.47 0-70.13 29.95-87.25 74.27-.967 2.5 7.346 4.467 6.48 7.056-.907 2.712-10.987 6.05-11.77 8.854-1.42 4.99-2.65 10.12-3.67 15.37-.486 2.484 6.604 4.227 6.21 6.762-.409 2.63-8.299 6.055-8.61 8.738-.92 7.89-1.39 15.99-1.39 24.25z"/><path style="fill:#ffbf9e" d="M46.73 343.21c18.17 36.15 47.58 59.64 80.77 59.64 55.23 0 100-65.05 100-145.29s-44.77-145.3-100-145.3c-16.06 0-31.24 5.5-44.69 15.28 2.35 17.19 3.61 35.27 3.61 53.93 0 65.61-15.52 124.04-39.69 161.74z"/><path style="fill:#f9d171" d="M88.549 127.5h90v-75c0-24.853-20.147-45-45-45s-45 20.147-45 45v75z"/><path style="fill:#f9d171" d="M50.048 165.646c32.86-20.66 83.502-7.466 83.502-7.466 77.718-60.472 112.972-106.882 0-104.21h-15c-31.009 0-61.953 10-74.414 29.746-23.891 37.859 5.912 81.93 5.912 81.93z"/><path style="fill:#fff8e6" d="M25.919 313.348c40.01 5.812 74.901.759 101.581-23.417 42.079 34.785 57.749 90.194 6.049 131.483 0 0-29.269 7.274-39.414-6.551-11.828 13.9-25.11 21.747-39.271 25.942-4.101 1.215-8.515-.254-11.02-3.721-9.919-13.729-32.149-53.86-17.925-123.736z"/><path style="fill:#fff1cf" d="M33.98 359.15c9.975 13.824 33.029 17.587 49 10.7 21.258-9.167 16.549-29.65-2.864-33.342-7.313-1.39-23.691-14.447-23.691-14.447S45.84 316.24 25.92 313.35c-2.31 11.33-.93 33.342 8.06 45.8z"/><path style="fill:#fff8e6" d="M25.919 313.348c5.215-9.861 16.739-14.038 25.474-11.064 17.925 6.102 13.072 22.419 32.076 37.036 6.04 4.646 3.769 14.257-3.677 15.876-12.014 2.613-25.625 1.076-36.325-7.664-15.064-12.306-17.548-34.184-17.548-34.184z"/><path style="fill:#fff1cf" d="M94.73 415.61c10.63 12.81 38.82 5.8 38.82 5.8 51.7-41.28 36.03-96.69-6.05-131.48-7.39 6.7-15.41 11.93-24 15.86 4.71 13.86 7.29 28.99 7.29 44.84 0 23.93-5.9 46.24-16.06 64.98z"/><path style="fill:#f9d171" d="M83.549 67.5h100c8.284 0 15-6.716 15-15 0-8.284-6.716-15-15-15h-100c-8.284 0-15 6.716-15 15 0 8.284 6.716 15 15 15z"/><path style="fill:#ffd4be" d="M430.71 504.5H361l-20-10-30 10H201l-30-10-20 10H81.29c-5.76 0-10.32-4.85-9.99-10.59C76.79 396.67 157.39 319.5 256 319.5s179.21 77.17 184.7 174.41c.33 5.74-4.23 10.59-9.99 10.59z"/><g><ellipse style="fill:#ffd4be" cx="382.706" cy="274.052" rx="37.255" ry="47.263"/><ellipse style="fill:#ffd4be" cx="256" cy="257.559" rx="139.706" ry="145.294"/><ellipse style="fill:#ffd4be" cx="129.294" cy="274.052" rx="37.255" ry="47.263"/><path style="fill:#ffbf9e" d="M362.49 351.61c-25.62 31.35-63.82 51.24-106.49 51.24-77.16 0-129.71-65.05-129.71-145.29 0-73.24 42.12-133.84 109.89-143.85-8.14 21.42-12.68 45.31-12.68 70.49 0 92.47 61.24 167.43 136.78 167.43.74 0 1.47-.01 2.21-.02z"/></g><g><path style="fill:#ff9eb1" d="m361 444.5-25 10-25-10v-70h50z"/><path style="fill:#fff8e6" d="M361 504.5h-50v-30l25-10 25 10z"/><path style="fill:#9cda82" d="M311 444.5h50v30h-50z"/></g><g><path style="fill:#ff9eb1" d="m201 444.5-25 10-25-10v-70h50z"/><path style="fill:#fff8e6" d="M201 504.5h-50v-30l25-10 25 10z"/><path style="fill:#9cda82" d="M151 444.5h50v30h-50z"/></g><path style="fill:#fff8e6" d="M376.12 324.5c-25.948 4.542-50.988 7.793-75.12 9.754-15.368 1.249-30.368-18.026-45-17.824-12.805.177-25.328 19.953-37.569 19.328-29.112-1.486-56.629-5.238-82.551-11.258-2.97 7.24-11.84 15.37-11.84 24.29 0 34.141 32.997 56.654 42.945 62.666a4.975 4.975 0 0 0 5.484-.212 93.222 93.222 0 0 0 5.2-4.038c1.9-1.582 4.763-1.105 6.015 1.027 8.958 15.245 21.71 25.295 26.892 28.982a3.997 3.997 0 0 0 4.646-.001 92.14 92.14 0 0 0 4.697-3.591c2.368-1.929 5.863-1.303 7.448 1.308 7.121 11.732 16.408 20.277 22.444 25.08a9.95 9.95 0 0 0 12.377 0c6.036-4.804 15.323-13.348 22.444-25.08 1.585-2.611 5.079-3.237 7.448-1.308a92.589 92.589 0 0 0 4.697 3.591 3.995 3.995 0 0 0 4.646.001c5.182-3.687 17.934-13.737 26.892-28.982 1.253-2.131 4.115-2.609 6.015-1.027a92.851 92.851 0 0 0 5.2 4.038 4.975 4.975 0 0 0 5.484.212c9.948-6.012 42.945-28.525 42.945-62.666.001-8.92-8.869-17.05-11.839-24.29z"/><path style="fill:#fff8e6" d="M373.21 196.21c-4.52 4.34-14.78 29.05-14.78 29.05l-3.73 74.19c-1.02 13.61-11.11 24.82-24.54 27.26L256 340.2l-74.16-13.49c-13.43-2.44-23.52-13.65-24.54-27.26l-3.73-74.19-14.78-19.05-22.74-1.9 6.92 62.34c.71 3.38 1.07 6.82 1.07 10.28v71.86s86.66 14.76 131.96 16.5c45.3-1.74 131.96-16.5 131.96-16.5v-71.86c0-3.46.36-6.9 1.07-10.28l6.92-62.34-22.74-8.1z"/><path style="fill:#fff1cf" d="M355.05 351.23c-35.45-5.74-77.45-21.96-77.45-21.96l-21.598-16.068v-.002l-.001.001-.001-.001v.002l-21.598 16.068s-42 16.22-77.45 21.96c-3.04 20.02 11.14 26.81 28.19 26.54 17.69 0 33.46-4.14 45.65-11.98 38.064-25.89 12.408-25.797 50.418 0 12.19 7.84 27.96 11.98 45.65 11.98 17.05.27 31.23-6.52 28.19-26.54z"/><path style="fill:#fff8e6" d="M316.365 311.05c-15.504-26.125-43.089-26.591-55.976-20.462a10.187 10.187 0 0 1-8.777 0c-12.888-6.129-40.472-5.663-55.976 20.462-7.214 12.155-21.253 22.441-33.293 29.609-8.702 5.181-6.391 18.339 3.553 20.261 18.289 3.534 40.827 2.56 56.93-7.841 11.843-7.173 19.627-15.492 24.738-23.591 3.912-6.199 12.961-6.199 16.873 0 5.111 8.099 12.895 16.418 24.738 23.591 16.042 10.403 38.627 11.373 56.935 7.84 9.943-1.919 12.255-15.077 3.553-20.257-12.041-7.168-26.083-17.456-33.298-29.612z"/><g><path style="fill:#fbf198" d="M268.407 54.016h-24.814c-71.051-1.88-129.511 54.35-127.545 150.29l22.745 21.904c5.955 5.735 15.902 2.177 16.868-6.034l2.231-18.95c.763-6.42 4.32-12.07 9.576-15.11 19.539-11.28 39.004-18.86 58.405-22.77 3.152-.63 6.415.56 8.501 3.21 5.716 7.26 13.308 11.68 21.625 11.68s15.909-4.42 21.625-11.68c2.086-2.65 5.349-3.84 8.501-3.21 19.401 3.91 38.866 11.49 58.405 22.77 5.257 3.04 8.814 8.69 9.577 15.11l2.231 18.95c.966 8.211 10.913 11.769 16.868 6.034l22.745-21.904c1.968-95.94-56.493-152.17-127.544-150.29z"/><path style="fill:#fbf198" d="M301 127.5h-90v-75c0-24.853 20.147-45 45-45s45 20.147 45 45v75z"/><path style="fill:#fbf198" d="M321 67.5H191v-10c0-11.046 8.954-20 20-20h90c11.046 0 20 8.954 20 20v10z"/><path style="fill:#c7aee4" d="M324.462 136.196c5.053.185 9.218-3.979 9.032-9.032-.205-5.594-1.737-12.928-7.382-18.573-5.646-5.646-12.98-7.177-18.573-7.382-5.053-.185-9.218 3.979-9.032 9.032.205 5.594 1.737 12.928 7.382 18.573 5.645 5.646 12.979 7.177 18.573 7.382zM187.538 136.196c-5.053.185-9.218-3.979-9.032-9.032.205-5.594 1.737-12.928 7.382-18.573 5.646-5.646 12.98-7.177 18.573-7.382 5.053-.185 9.218 3.979 9.032 9.032-.205 5.594-1.737 12.928-7.382 18.573-5.645 5.646-12.979 7.177-18.573 7.382z"/><ellipse style="fill:#bbe5a7" cx="256" cy="110.836" rx="16" ry="17.866"/></g><g><path style="fill:none;stroke:#000;stroke-width:15;stroke-linecap:round;stroke-linejoin:round;stroke-miterlimit:10" d="M336.02 37.5c6.17-17.48 22.84-30 42.43-30 12.43 0 23.67 5.04 31.82 13.18a44.853 44.853 0 0 1 10.61 16.82M409.87 306.4c11.23 4.95 23.42 7.72 36.41 8.71M417.86 414.86l.02.02c11.82 13.89 25.1 21.73 39.26 25.93 4.1 1.21 8.51-.26 11.02-3.73 9.92-13.72 32.14-53.86 17.92-123.73"/><path style="fill:none;stroke:#000;stroke-width:15;stroke-linecap:round;stroke-linejoin:round;stroke-miterlimit:10" d="M486.081 313.348c-5.215-9.861-16.739-14.038-25.474-11.064-17.925 6.102-13.072 22.419-32.076 37.036-6.04 4.646-3.769 14.257 3.677 15.876 12.014 2.613 25.625 1.076 36.325-7.664 15.064-12.306 17.548-34.184 17.548-34.184zM439.8 62.3c12.18 4.95 22.18 12.09 28.06 21.42 23.89 37.86-5.91 81.93-5.91 81.93-20.06-12.61-46.74-12.61-64.48-10.7M374 67.5h-45.55"/><path style="fill:none;stroke:#000;stroke-width:15;stroke-linecap:round;stroke-linejoin:round;stroke-miterlimit:10" d="M317.84 41.9c2.72-2.72 6.47-4.4 10.61-4.4h100c8.29 0 15 6.72 15 15 0 3.75-1.38 7.17-3.65 9.8-.23.28-.48.54-.74.8a14.94 14.94 0 0 1-10.61 4.4H409M484.5 258.04c11.66 4.81 20 17.77 20 33.01 0 13.78-6.82 25.7-16.75 31.4M461.95 165.65c14.1 25.04 22.55 57.04 22.55 91.91v.48M453.551 257.787v12M474.62 194.52l-33.62-4.8M482.07 225.59 441 219.72M91.12 37.5c2.25-6.4 5.92-12.13 10.61-16.82 8.15-8.14 19.39-13.18 31.82-13.18 19.59 0 36.26 12.52 42.43 30M65.72 315.11c12.99-.99 25.18-3.76 36.41-8.71M25.92 313.35c-14.22 69.87 8 110.01 17.92 123.73 2.51 3.47 6.92 4.94 11.02 3.73 14.16-4.2 27.44-12.04 39.26-25.93l.02-.02"/><path style="fill:none;stroke:#000;stroke-width:15;stroke-linecap:round;stroke-linejoin:round;stroke-miterlimit:10" d="M25.919 313.348c5.215-9.861 16.739-14.038 25.474-11.064 17.925 6.102 13.072 22.419 32.076 37.036 6.04 4.646 3.769 14.257-3.677 15.876-12.014 2.613-25.625 1.076-36.325-7.664-15.064-12.306-17.548-34.184-17.548-34.184zM114.53 154.95c-17.74-1.91-44.42-1.91-64.48 10.7 0 0-29.8-44.07-5.91-81.93 5.88-9.33 15.88-16.47 28.06-21.42"/><path style="fill:none;stroke:#000;stroke-width:15;stroke-linecap:round;stroke-linejoin:round;stroke-miterlimit:10" d="M183.55 67.5h-100c-4.15 0-7.89-1.68-10.61-4.4-.26-.26-.51-.52-.74-.8a14.944 14.944 0 0 1-3.65-9.8c0-8.28 6.71-15 15-15h100c4.14 0 7.89 1.68 10.61 4.4M24.25 322.45c-9.93-5.7-16.75-17.62-16.75-31.4 0-15.24 8.34-28.2 20-33.01M27.5 258.04v-.48c0-34.87 8.45-66.87 22.55-91.91M58.449 257.787v12M71 189.72l-33.62 4.8M71 219.72l-41.07 5.87M383.42 370.38c33.068 31.426 54.535 74.966 57.281 123.508.326 5.754-4.224 10.612-9.986 10.612H81.286c-5.763 0-10.312-4.858-9.986-10.612 2.746-48.542 24.213-92.082 57.281-123.508"/><g><path style="fill:none;stroke:#000;stroke-width:15;stroke-linecap:round;stroke-linejoin:round;stroke-miterlimit:10" d="M387.96 320.85c18.08-3.23 32-22.96 32-46.8 0-19.01-8.85-35.4-21.61-42.89h-.01M124.04 320.85c-18.08-3.23-32-22.96-32-46.8 0-19.01 8.85-35.4 21.61-42.89h.01"/></g><g><path style="fill:none;stroke:#000;stroke-width:15;stroke-linecap:round;stroke-linejoin:round;stroke-miterlimit:10" d="M193.551 257.787v12M318.449 257.787v12"/></g><path style="fill:none;stroke:#000;stroke-width:15;stroke-linecap:round;stroke-linejoin:round;stroke-miterlimit:10" d="M311 504.5v-75.1M361 399.75V504.5M311 444.5h50v30h-50zM151 504.5V399.75M201 429.4v75.1M151 444.5h50v30h-50zM316.365 311.05c-15.504-26.125-43.089-26.591-55.976-20.462a10.187 10.187 0 0 1-8.777 0c-12.888-6.129-40.472-5.663-55.976 20.462-7.214 12.155-21.253 22.441-33.293 29.609-8.702 5.181-6.391 18.339 3.553 20.261 18.289 3.534 40.827 2.56 56.93-7.841 11.843-7.173 19.627-15.492 24.738-23.591 3.912-6.199 12.961-6.199 16.873 0 5.111 8.099 12.895 16.418 24.738 23.591 16.042 10.403 38.627 11.373 56.935 7.84 9.943-1.919 12.255-15.077 3.553-20.257-12.041-7.168-26.083-17.456-33.298-29.612zM213.57 37.5c6.17-17.48 22.84-30 42.43-30 12.42 0 23.68 5.04 31.82 13.18a44.853 44.853 0 0 1 10.61 16.82M191 64.28V57.5c0-11.05 8.95-20 20-20h90c11.05 0 20 8.95 20 20v6.78"/><g><path style="fill:none;stroke:#000;stroke-width:15;stroke-linecap:round;stroke-linejoin:round;stroke-miterlimit:10" d="M324.462 136.196c5.053.185 9.218-3.979 9.032-9.032-.205-5.594-1.737-12.928-7.382-18.573-5.646-5.646-12.98-7.177-18.573-7.382-5.053-.185-9.218 3.979-9.032 9.032.205 5.594 1.737 12.928 7.382 18.573 5.645 5.646 12.979 7.177 18.573 7.382zM187.538 136.196c-5.053.185-9.218-3.979-9.032-9.032.205-5.594 1.737-12.928 7.382-18.573 5.646-5.646 12.98-7.177 18.573-7.382 5.053-.185 9.218 3.979 9.032 9.032-.205 5.594-1.737 12.928-7.382 18.573-5.645 5.646-12.979 7.177-18.573 7.382z"/><ellipse style="fill:none;stroke:#000;stroke-width:15;stroke-linecap:round;stroke-linejoin:round;stroke-miterlimit:10" cx="256" cy="110.836" rx="16" ry="17.866"/></g><path style="fill:none;stroke:#000;stroke-width:15;stroke-linecap:round;stroke-linejoin:round;stroke-miterlimit:10" d="M221.002 207.72h70M221.002 237.72h70M124.04 348.79c0 34.141 32.997 56.654 42.945 62.666a4.975 4.975 0 0 0 5.484-.212 93.222 93.222 0 0 0 5.2-4.038c1.9-1.582 4.763-1.105 6.015 1.027 8.958 15.245 21.71 25.295 26.892 28.982a3.997 3.997 0 0 0 4.646-.001 92.14 92.14 0 0 0 4.697-3.591c2.368-1.929 5.863-1.303 7.448 1.308 7.121 11.732 16.408 20.277 22.444 25.08a9.95 9.95 0 0 0 12.377 0c6.036-4.804 15.323-13.348 22.444-25.08 1.585-2.611 5.079-3.237 7.448-1.308a92.589 92.589 0 0 0 4.697 3.591 3.995 3.995 0 0 0 4.646.001c5.182-3.687 17.934-13.737 26.892-28.982 1.253-2.131 4.115-2.609 6.015-1.027a92.851 92.851 0 0 0 5.2 4.038 4.975 4.975 0 0 0 5.484.212c9.948-6.012 42.945-28.525 42.945-62.666M387.96 348.79v-71.86c0-3.46 7.99-72.62 7.99-72.62M116.05 204.31s7.99 69.16 7.99 72.62v71.86M330.03 326.73l.13-.02c13.43-2.44 23.52-13.65 24.54-27.26l3.73-74.19M156.95 292.43l.35 7.02c1.02 13.61 11.11 24.82 24.54 27.26l.12.02M155.19 257.47l-1.62-32.21"/><path style="fill:none;stroke:#000;stroke-width:15;stroke-linecap:round;stroke-linejoin:round;stroke-miterlimit:10" d="M321 64.28c45.04 20.19 76.4 69.33 74.95 140.03l-22.74 21.9c-5.96 5.73-15.91 2.18-16.87-6.03l-2.23-18.95c-.77-6.42-4.32-12.07-9.58-15.11-19.54-11.28-39-18.86-58.4-22.77-3.16-.63-6.42.56-8.5 3.21-5.72 7.26-13.31 11.68-21.63 11.68s-15.91-4.42-21.63-11.68c-2.08-2.65-5.34-3.84-8.5-3.21-19.4 3.91-38.86 11.49-58.4 22.77-5.26 3.04-8.81 8.69-9.58 15.11l-2.23 18.95c-.96 8.21-10.91 11.76-16.87 6.03l-22.74-21.9C114.6 133.61 145.96 84.47 191 64.28"/></g></svg>