<svg id="Capa_1" enable-background="new 0 0 512 512" height="512" viewBox="0 0 512 512" width="512" xmlns="http://www.w3.org/2000/svg"><g><g><ellipse cx="481.095" cy="292.11" fill="#ffd4be" rx="30.905" ry="36.056"/><g><path d="m491.396 257.607c0 82.662-46.121 149.675-103.018 149.675s-103.018-67.013-103.018-149.675 46.121-149.685 103.018-149.685c38.601 0 72.247 30.854 89.883 76.512.996 2.576-7.567 4.602-6.676 7.269.934 2.794 11.319 6.233 12.125 9.122 1.463 5.141 2.73 10.425 3.781 15.834.501 2.559-6.804 4.354-6.397 6.966.421 2.71 8.55 6.237 8.87 9.002.948 8.126 1.432 16.471 1.432 24.98z" fill="#ffd4be"/></g><g><path d="m471.586 345.842c-18.718 37.241-49.016 61.44-83.208 61.44-56.897 0-103.018-67.013-103.018-149.675s46.121-149.685 103.018-149.685c16.545 0 32.183 5.666 46.039 15.741-2.421 17.709-3.719 36.335-3.719 55.558 0 67.59 15.988 127.783 40.888 166.621z" fill="#ffbf9e"/></g><path d="m428.505 123.622h-92.716v-77.264c-.001-25.603 20.755-46.358 46.358-46.358 25.603 0 46.358 20.755 46.358 46.358z" fill="#f9d171"/><path d="m468.168 162.919c-33.852-21.284-86.022-7.692-86.022-7.692-80.064-62.297-116.382-110.108 0-107.355h15.453c31.945 0 63.823 10.302 76.659 30.644 24.612 39.002-6.09 84.403-6.09 84.403z" fill="#f9d171"/><path d="m459.514 277.93c-4.267 0-7.726-3.459-7.726-7.726v-12.362c0-4.267 3.459-7.726 7.726-7.726s7.726 3.459 7.726 7.726v12.362c0 4.266-3.459 7.726-7.726 7.726z" fill="#666667"/><path d="m493.025 315.079c-41.218 5.987-77.162.782-104.646-24.124-43.349 35.835-59.492 92.916-6.232 135.451 0 0 30.152 7.493 40.603-6.748 12.185 14.32 25.868 22.404 40.456 26.725 4.225 1.252 8.772-.262 11.353-3.833 10.219-14.144 33.119-55.487 18.466-127.471z" fill="#fff8e6"/><path d="m484.721 362.263c-10.276 14.241-34.026 18.118-50.479 11.023-21.899-9.444-17.048-30.545 2.951-34.348 7.533-1.432 24.406-14.883 24.406-14.883s10.904-5.997 31.425-8.975c2.38 11.673.958 34.349-8.303 47.183z" fill="#fff1cf"/><path d="m493.025 315.079c-5.373-10.159-17.245-14.462-26.243-11.398-18.466 6.286-13.466 23.095-33.044 38.154-6.222 4.786-3.883 14.687 3.788 16.356 12.376 2.692 26.398 1.109 37.421-7.896 15.519-12.678 18.078-35.216 18.078-35.216z" fill="#fff8e6"/><path d="m422.137 420.427c-10.951 13.197-39.992 5.975-39.992 5.975-53.26-42.526-37.117-99.608 6.233-135.448 7.613 6.902 15.875 12.29 24.724 16.339-4.852 14.278-7.51 29.865-7.51 46.193.001 24.652 6.079 47.636 16.545 66.941z" fill="#fff1cf"/><path d="m433.656 61.811h-103.018c-8.534 0-15.453-6.918-15.453-15.453 0-8.534 6.918-15.453 15.453-15.453h103.018c8.534 0 15.453 6.918 15.453 15.453-.001 8.534-6.919 15.453-15.453 15.453z" fill="#f9d171"/><g fill="#fff8e6"><path d="m483.711 200.824-38.22-5.46c-4.224-.598-7.16-4.512-6.552-8.736.597-4.224 4.512-7.16 8.736-6.562l30.586 4.368c2.04 5.274 3.874 10.744 5.45 16.39z"/><path d="m489.964 232.625-44.473-6.356c-4.224-.598-7.16-4.512-6.552-8.736.597-4.224 4.512-7.16 8.736-6.562l39.817 5.687c1.02 5.212 1.844 10.538 2.472 15.967z"/></g></g><g><ellipse cx="30.905" cy="292.11" fill="#ffd4be" rx="30.905" ry="36.056"/><g><path d="m20.604 257.607c0 82.662 46.121 149.675 103.018 149.675s103.018-67.013 103.018-149.675-46.121-149.685-103.018-149.685c-38.601 0-72.247 30.854-89.883 76.512-.996 2.576 7.567 4.602 6.676 7.269-.934 2.794-11.319 6.233-12.125 9.122-1.463 5.141-2.73 10.425-3.781 15.834-.501 2.559 6.804 4.354 6.397 6.966-.421 2.71-8.55 6.237-8.87 9.002-.948 8.126-1.432 16.471-1.432 24.98z" fill="#ffd4be"/></g><g><path d="m40.414 345.842c18.718 37.241 49.016 61.44 83.208 61.44 56.897 0 103.018-67.013 103.018-149.675s-46.121-149.685-103.018-149.685c-16.545 0-32.183 5.666-46.039 15.741 2.421 17.709 3.719 36.335 3.719 55.558 0 67.59-15.988 127.783-40.888 166.621z" fill="#ffbf9e"/></g><path d="m83.495 123.622h92.716v-77.264c.001-25.603-20.755-46.358-46.358-46.358-25.603 0-46.358 20.755-46.358 46.358z" fill="#f9d171"/><path d="m43.832 162.919c33.852-21.284 86.022-7.692 86.022-7.692 80.064-62.297 116.382-110.108 0-107.355h-15.453c-31.945 0-63.823 10.302-76.659 30.644-24.612 39.002 6.09 84.403 6.09 84.403z" fill="#f9d171"/><path d="m52.486 277.93c-4.267 0-7.726-3.459-7.726-7.726v-12.362c0-4.267 3.459-7.726 7.726-7.726s7.726 3.459 7.726 7.726v12.362c.001 4.266-3.458 7.726-7.726 7.726z" fill="#666667"/><path d="m18.975 315.079c41.218 5.987 77.162.782 104.646-24.124 43.349 35.835 59.492 92.916 6.232 135.451 0 0-30.152 7.493-40.603-6.748-12.185 14.32-25.868 22.404-40.456 26.725-4.225 1.252-8.772-.262-11.353-3.833-10.219-14.144-33.119-55.487-18.466-127.471z" fill="#fff8e6"/><path d="m27.279 362.263c10.276 14.241 34.026 18.118 50.479 11.023 21.899-9.444 17.048-30.545-2.951-34.348-7.533-1.432-24.406-14.883-24.406-14.883s-10.904-5.997-31.425-8.975c-2.38 11.673-.958 34.349 8.303 47.183z" fill="#fff1cf"/><path d="m18.975 315.079c5.373-10.159 17.245-14.462 26.243-11.398 18.466 6.286 13.466 23.095 33.044 38.154 6.222 4.786 3.883 14.687-3.788 16.356-12.376 2.692-26.398 1.109-37.421-7.896-15.519-12.678-18.078-35.216-18.078-35.216z" fill="#fff8e6"/><path d="m89.863 420.427c10.951 13.197 39.992 5.975 39.992 5.975 53.26-42.526 37.117-99.608-6.233-135.448-7.613 6.902-15.875 12.29-24.724 16.339 4.852 14.278 7.51 29.865 7.51 46.193-.001 24.652-6.079 47.636-16.545 66.941z" fill="#fff1cf"/><path d="m78.344 61.811h103.018c8.534 0 15.453-6.918 15.453-15.453 0-8.534-6.918-15.453-15.453-15.453h-103.018c-8.534 0-15.453 6.918-15.453 15.453.001 8.534 6.919 15.453 15.453 15.453z" fill="#f9d171"/><g fill="#fff8e6"><path d="m28.289 200.824 38.22-5.46c4.224-.598 7.16-4.512 6.552-8.736-.597-4.224-4.512-7.16-8.736-6.562l-30.586 4.368c-2.04 5.274-3.874 10.744-5.45 16.39z"/><path d="m22.036 232.625 44.473-6.356c4.224-.598 7.16-4.512 6.552-8.736-.597-4.224-4.512-7.16-8.736-6.562l-39.817 5.687c-1.02 5.212-1.844 10.538-2.472 15.967z"/></g></g><path d="m435.983 512h-71.814l-20.604-10.302-30.905 10.302h-113.32l-30.905-10.302-20.604 10.302h-71.814c-5.934 0-10.631-4.996-10.291-10.91 5.655-100.174 88.688-179.673 190.274-179.673s184.619 79.499 190.274 179.674c.34 5.913-4.357 10.909-10.291 10.909z" fill="#ffd4be"/><g><ellipse cx="386.53" cy="274.597" fill="#ffd4be" rx="38.379" ry="48.69"/><g><ellipse cx="256" cy="257.606" fill="#ffd4be" rx="143.922" ry="149.679"/></g><ellipse cx="125.47" cy="274.597" fill="#ffd4be" rx="38.379" ry="48.69"/><g><path d="m365.704 354.496c-26.393 32.296-65.746 52.786-109.704 52.786-79.489 0-133.625-67.013-133.625-149.675 0-75.45 43.391-137.879 113.207-148.192-8.386 22.067-13.063 46.678-13.063 72.618 0 95.261 63.088 172.483 140.908 172.483.763 0 1.515-.01 2.277-.02z" fill="#ffbf9e"/></g></g><g fill="#666667"><path d="m191.667 277.93c-4.267 0-7.726-3.459-7.726-7.726v-12.362c0-4.267 3.459-7.726 7.726-7.726s7.726 3.459 7.726 7.726v12.362c0 4.266-3.459 7.726-7.726 7.726z"/><path d="m320.333 277.93c-4.267 0-7.726-3.459-7.726-7.726v-12.362c0-4.267 3.459-7.726 7.726-7.726s7.726 3.459 7.726 7.726v12.362c.001 4.266-3.458 7.726-7.726 7.726z"/></g><g><path d="m364.169 450.189-25.755 10.302-25.754-10.302v-72.113h51.509z" fill="#ff9eb1"/><path d="m364.169 512h-51.509v-30.905l25.754-10.302 25.755 10.302z" fill="#fff8e6"/><path d="m312.66 450.189h51.509v30.905h-51.509z" fill="#9cda82"/></g><g><path d="m199.34 450.189-25.754 10.302-25.755-10.302v-72.113h51.509z" fill="#ff9eb1"/><path d="m199.34 512h-51.509v-30.905l25.755-10.302 25.754 10.302z" fill="#fff8e6"/><path d="m147.831 450.189h51.509v30.905h-51.509z" fill="#9cda82"/></g><path d="m379.745 326.567c-26.731 4.679-52.527 8.028-77.387 10.048-15.832 1.286-31.285-18.57-46.358-18.362-13.191.182-26.092 20.555-38.703 19.912-29.991-1.531-58.339-5.397-85.043-11.598-3.06 7.458-12.197 15.834-12.197 25.023 0 35.171 33.993 58.364 44.241 64.557 1.761 1.064 3.979.983 5.65-.218 1.391-1 3.234-2.393 5.357-4.16 1.957-1.63 4.906-1.138 6.197 1.058 9.229 15.705 22.365 26.058 27.704 29.857 1.437 1.022 3.35 1.022 4.786-.001 1.241-.884 2.903-2.122 4.839-3.699 2.44-1.987 6.04-1.343 7.672 1.347 7.336 12.086 16.903 20.889 23.121 25.837 3.726 2.965 9.025 2.965 12.751 0 6.218-4.949 15.785-13.751 23.121-25.837 1.633-2.69 5.233-3.335 7.672-1.347 1.936 1.577 3.598 2.815 4.839 3.699 1.436 1.023 3.35 1.024 4.786.001 5.339-3.799 18.476-14.152 27.704-29.857 1.29-2.196 4.239-2.687 6.197-1.058 2.122 1.767 3.966 3.16 5.357 4.16 1.671 1.201 3.888 1.283 5.65.218 10.248-6.193 44.241-29.386 44.241-64.557.001-9.189-9.137-17.564-12.197-25.023z" fill="#fff8e6"/><path d="m376.748 194.405c-4.656 4.471-15.226 29.927-15.226 29.927l-3.843 76.429c-1.051 14.021-11.445 25.569-25.281 28.083l-76.398 13.897-76.398-13.897c-13.835-2.514-24.23-14.062-25.281-28.083l-3.843-76.429-15.226-19.625-23.426-1.957 7.129 64.221c.731 3.482 1.102 7.026 1.102 10.59v74.029s89.276 15.205 135.943 16.998c46.667-1.793 135.943-16.998 135.943-16.998v-74.029c0-3.564.371-7.108 1.102-10.59l7.129-64.221z" fill="#fff8e6"/><path d="m358.039 354.104c-36.52-5.913-79.788-22.623-79.788-22.623l-22.25-16.553v-.002l-.001.001v-.001.002l-22.25 16.553s-43.268 16.71-79.788 22.623c-3.132 20.624 11.476 27.619 29.041 27.341 18.224 0 34.47-4.265 47.028-12.342 39.213-26.671 12.783-26.576 51.94 0 12.558 8.077 28.804 12.342 47.028 12.342 17.564.278 32.172-6.717 29.04-27.341z" fill="#fff1cf"/><path d="m318.187 312.711c-15.972-26.913-44.389-27.394-57.666-21.08-2.871 1.365-6.172 1.365-9.042 0-13.277-6.314-41.694-5.833-57.666 21.08-7.431 12.522-21.894 23.118-34.298 30.503-8.965 5.337-6.584 18.893 3.66 20.872 18.841 3.641 42.059 2.638 58.648-8.077 12.201-7.389 20.219-15.959 25.485-24.303 4.03-6.387 13.352-6.387 17.382 0 5.265 8.343 13.284 16.913 25.485 24.303 16.527 10.717 39.793 11.716 58.653 8.077 10.243-1.976 12.625-15.533 3.661-20.869-12.404-7.384-26.87-17.983-34.302-30.506z" fill="#fff8e6"/><g fill="#fff8e6"><path d="m292.058 213.989h-72.113c-4.267 0-7.726-3.459-7.726-7.726s3.459-7.726 7.726-7.726h72.113c4.267 0 7.726 3.459 7.726 7.726s-3.459 7.726-7.726 7.726z"/><path d="m292.058 244.894h-72.113c-4.267 0-7.726-3.459-7.726-7.726s3.459-7.726 7.726-7.726h72.113c4.267 0 7.726 3.459 7.726 7.726.001 4.267-3.459 7.726-7.726 7.726z"/></g><g><g fill="#fbf198"><path d="m268.782 47.92h-25.563c-73.196-1.937-133.42 55.99-131.394 154.826l23.432 22.565c6.135 5.908 16.381 2.243 17.377-6.216l2.298-19.522c.786-6.614 4.45-12.434 9.865-15.566 20.129-11.62 40.181-19.429 60.168-23.457 3.247-.649 6.609.577 8.758 3.307 5.889 7.479 13.709 12.033 22.278 12.033 8.568 0 16.389-4.553 22.278-12.033 2.149-2.73 5.51-3.956 8.758-3.307 19.987 4.028 40.039 11.837 60.168 23.457 5.416 3.132 9.08 8.952 9.866 15.566l2.298 19.522c.996 8.459 11.242 12.124 17.377 6.216l23.432-22.565c2.024-98.836-58.201-156.763-131.396-154.826z"/><path d="m302.358 123.622h-92.716v-77.264c0-25.603 20.755-46.358 46.358-46.358 25.603 0 46.358 20.755 46.358 46.358z"/><path d="m322.962 61.811h-133.924v-10.302c0-11.379 9.225-20.604 20.604-20.604h92.716c11.379 0 20.604 9.225 20.604 20.604z"/></g><g><path d="m326.528 132.58c5.205.191 9.496-4.1 9.305-9.305-.211-5.763-1.789-13.318-7.605-19.134s-13.371-7.394-19.134-7.605c-5.205-.191-9.496 4.1-9.305 9.305.211 5.763 1.789 13.318 7.605 19.134s13.371 7.394 19.134 7.605z" fill="#c7aee4"/><path d="m185.472 132.58c-5.205.191-9.496-4.1-9.305-9.305.211-5.763 1.789-13.318 7.605-19.134s13.371-7.394 19.134-7.605c5.205-.191 9.496 4.1 9.305 9.305-.211 5.763-1.789 13.318-7.605 19.134s-13.371 7.394-19.134 7.605z" fill="#c7aee4"/><ellipse cx="256" cy="106.455" fill="#bbe5a7" rx="16.483" ry="18.405"/></g></g></g></svg>