<?xml version="1.0" encoding="UTF-8" standalone="no"?>
<!DOCTYPE svg PUBLIC "-//W3C//DTD SVG 1.1//EN" "http://www.w3.org/Graphics/SVG/1.1/DTD/svg11.dtd">
<svg width="100%" height="100%" viewBox="0 0 1080 500" version="1.1" xmlns="http://www.w3.org/2000/svg" xmlns:xlink="http://www.w3.org/1999/xlink" xml:space="preserve" xmlns:serif="http://www.serif.com/" style="fill-rule:evenodd;clip-rule:evenodd;stroke-linecap:round;stroke-linejoin:round;stroke-miterlimit:10;">
    <g transform="matrix(0.554457,0,0,0.554457,247.699,250)">
        <g transform="matrix(1,0,0,1,-256,-256)">
            <g>
                <g>
                    <g>
                        <ellipse cx="474.5" cy="291.052" rx="30" ry="35" style="fill:rgb(255,212,190);"/>
                        <g>
                            <path d="M484.5,257.56C484.5,337.8 439.73,402.85 384.5,402.85C329.27,402.85 284.5,337.8 284.5,257.56C284.5,177.32 329.27,112.26 384.5,112.26C421.97,112.26 454.63,142.21 471.75,186.53C472.717,189.03 464.404,190.997 465.27,193.586C466.177,196.298 476.257,199.636 477.04,202.44C478.46,207.43 479.69,212.56 480.71,217.81C481.196,220.294 474.106,222.037 474.5,224.572C474.909,227.202 482.799,230.627 483.11,233.31C484.03,241.2 484.5,249.3 484.5,257.56Z" style="fill:rgb(255,212,190);fill-rule:nonzero;"/>
                        </g>
                        <g>
                            <path d="M465.27,343.21C447.1,379.36 417.69,402.85 384.5,402.85C329.27,402.85 284.5,337.8 284.5,257.56C284.5,177.32 329.27,112.26 384.5,112.26C400.56,112.26 415.74,117.76 429.19,127.54C426.84,144.73 425.58,162.81 425.58,181.47C425.58,247.08 441.1,305.51 465.27,343.21Z" style="fill:rgb(255,191,158);fill-rule:nonzero;"/>
                        </g>
                        <path d="M423.451,127.5L333.451,127.5L333.451,52.5C333.451,27.647 353.598,7.5 378.451,7.5C403.304,7.5 423.451,27.647 423.451,52.5L423.451,127.5Z" style="fill:rgb(249,209,113);fill-rule:nonzero;"/>
                        <path d="M461.952,165.646C429.092,144.986 378.45,158.18 378.45,158.18C300.732,97.708 265.478,51.298 378.45,53.97L393.45,53.97C424.459,53.97 455.403,63.97 467.864,83.716C491.755,121.575 461.952,165.646 461.952,165.646Z" style="fill:rgb(249,209,113);fill-rule:nonzero;"/>
                        <path d="M486.081,313.348C446.071,319.16 411.18,314.107 384.5,289.931C342.421,324.716 326.751,380.125 378.451,421.414C378.451,421.414 407.72,428.688 417.865,414.863C429.693,428.763 442.975,436.61 457.136,440.805C461.237,442.02 465.651,440.551 468.156,437.084C478.075,423.355 500.305,383.224 486.081,313.348Z" style="fill:rgb(255,248,230);fill-rule:nonzero;"/>
                        <path d="M478.02,359.15C468.045,372.974 444.99,376.737 429.02,369.85C407.762,360.683 412.471,340.2 431.884,336.508C439.197,335.118 455.575,322.061 455.575,322.061C455.575,322.061 466.16,316.239 486.08,313.349C488.39,324.68 487.01,346.692 478.02,359.15Z" style="fill:rgb(255,241,207);fill-rule:nonzero;"/>
                        <path d="M486.081,313.348C480.866,303.487 469.342,299.31 460.607,302.284C442.682,308.386 447.535,324.703 428.531,339.32C422.491,343.966 424.762,353.577 432.208,355.196C444.222,357.809 457.833,356.272 468.533,347.532C483.597,335.226 486.081,313.348 486.081,313.348Z" style="fill:rgb(255,248,230);fill-rule:nonzero;"/>
                        <path d="M417.27,415.61C406.64,428.42 378.45,421.41 378.45,421.41C326.75,380.13 342.42,324.72 384.5,289.93C391.89,296.63 399.91,301.86 408.5,305.79C403.79,319.65 401.21,334.78 401.21,350.63C401.21,374.56 407.11,396.87 417.27,415.61Z" style="fill:rgb(255,241,207);fill-rule:nonzero;"/>
                        <path d="M428.451,67.5L328.451,67.5C320.167,67.5 313.451,60.784 313.451,52.5C313.451,44.216 320.167,37.5 328.451,37.5L428.451,37.5C436.735,37.5 443.451,44.216 443.451,52.5C443.451,60.784 436.735,67.5 428.451,67.5Z" style="fill:rgb(249,209,113);fill-rule:nonzero;"/>
                    </g>
                    <g>
                        <ellipse cx="37.5" cy="291.052" rx="30" ry="35" style="fill:rgb(255,212,190);"/>
                        <g>
                            <path d="M27.5,257.56C27.5,337.8 72.27,402.85 127.5,402.85C182.73,402.85 227.5,337.8 227.5,257.56C227.5,177.32 182.73,112.26 127.5,112.26C90.03,112.26 57.37,142.21 40.25,186.53C39.283,189.03 47.596,190.997 46.73,193.586C45.823,196.298 35.743,199.636 34.96,202.44C33.54,207.43 32.31,212.56 31.29,217.81C30.804,220.294 37.894,222.037 37.5,224.572C37.091,227.202 29.201,230.627 28.89,233.31C27.97,241.2 27.5,249.3 27.5,257.56Z" style="fill:rgb(255,212,190);fill-rule:nonzero;"/>
                        </g>
                        <g>
                            <path d="M46.73,343.21C64.9,379.36 94.31,402.85 127.5,402.85C182.73,402.85 227.5,337.8 227.5,257.56C227.5,177.32 182.73,112.26 127.5,112.26C111.44,112.26 96.26,117.76 82.81,127.54C85.16,144.73 86.42,162.81 86.42,181.47C86.42,247.08 70.9,305.51 46.73,343.21Z" style="fill:rgb(255,191,158);fill-rule:nonzero;"/>
                        </g>
                        <path d="M88.549,127.5L178.549,127.5L178.549,52.5C178.549,27.647 158.402,7.5 133.549,7.5C108.696,7.5 88.549,27.647 88.549,52.5L88.549,127.5Z" style="fill:rgb(249,209,113);fill-rule:nonzero;"/>
                        <path d="M50.048,165.646C82.908,144.986 133.55,158.18 133.55,158.18C211.268,97.708 246.522,51.298 133.55,53.97L118.55,53.97C87.541,53.97 56.597,63.97 44.136,83.716C20.245,121.575 50.048,165.646 50.048,165.646Z" style="fill:rgb(249,209,113);fill-rule:nonzero;"/>
                        <path d="M25.919,313.348C65.929,319.16 100.82,314.107 127.5,289.931C169.579,324.716 185.249,380.125 133.549,421.414C133.549,421.414 104.28,428.688 94.135,414.863C82.307,428.763 69.025,436.61 54.864,440.805C50.763,442.02 46.349,440.551 43.844,437.084C33.925,423.355 11.695,383.224 25.919,313.348Z" style="fill:rgb(255,248,230);fill-rule:nonzero;"/>
                        <path d="M33.98,359.15C43.955,372.974 67.009,376.737 82.98,369.85C104.238,360.683 99.529,340.2 80.116,336.508C72.803,335.118 56.425,322.061 56.425,322.061C56.425,322.061 45.84,316.24 25.92,313.35C23.61,324.68 24.99,346.692 33.98,359.15Z" style="fill:rgb(255,241,207);fill-rule:nonzero;"/>
                        <path d="M25.919,313.348C31.134,303.487 42.658,299.31 51.393,302.284C69.318,308.386 64.465,324.703 83.469,339.32C89.509,343.966 87.238,353.577 79.792,355.196C67.778,357.809 54.167,356.272 43.467,347.532C28.403,335.226 25.919,313.348 25.919,313.348Z" style="fill:rgb(255,248,230);fill-rule:nonzero;"/>
                        <path d="M94.73,415.61C105.36,428.42 133.55,421.41 133.55,421.41C185.25,380.13 169.58,324.72 127.5,289.93C120.11,296.63 112.09,301.86 103.5,305.79C108.21,319.65 110.79,334.78 110.79,350.63C110.79,374.56 104.89,396.87 94.73,415.61Z" style="fill:rgb(255,241,207);fill-rule:nonzero;"/>
                        <path d="M83.549,67.5L183.549,67.5C191.833,67.5 198.549,60.784 198.549,52.5C198.549,44.216 191.833,37.5 183.549,37.5L83.549,37.5C75.265,37.5 68.549,44.216 68.549,52.5C68.549,60.784 75.265,67.5 83.549,67.5Z" style="fill:rgb(249,209,113);fill-rule:nonzero;"/>
                    </g>
                    <path d="M430.71,504.5L361,504.5L341,494.5L311,504.5L201,504.5L171,494.5L151,504.5L81.29,504.5C75.53,504.5 70.97,499.65 71.3,493.91C76.79,396.67 157.39,319.5 256,319.5C354.61,319.5 435.21,396.67 440.7,493.91C441.03,499.65 436.47,504.5 430.71,504.5Z" style="fill:rgb(255,212,190);fill-rule:nonzero;"/>
                    <g>
                        <ellipse cx="382.706" cy="274.052" rx="37.255" ry="47.263" style="fill:rgb(255,212,190);"/>
                        <g>
                            <ellipse cx="256" cy="257.559" rx="139.706" ry="145.294" style="fill:rgb(255,212,190);"/>
                        </g>
                        <ellipse cx="129.294" cy="274.052" rx="37.255" ry="47.263" style="fill:rgb(255,212,190);"/>
                        <g>
                            <path d="M362.49,351.61C336.87,382.96 298.67,402.85 256,402.85C178.84,402.85 126.29,337.8 126.29,257.56C126.29,184.32 168.41,123.72 236.18,113.71C228.04,135.13 223.5,159.02 223.5,184.2C223.5,276.67 284.74,351.63 360.28,351.63C361.02,351.63 361.75,351.62 362.49,351.61Z" style="fill:rgb(255,191,158);fill-rule:nonzero;"/>
                        </g>
                    </g>
                    <g>
                        <path d="M361,444.5L336,454.5L311,444.5L311,374.5L361,374.5L361,444.5Z" style="fill:rgb(255,158,177);fill-rule:nonzero;"/>
                        <path d="M361,504.5L311,504.5L311,474.5L336,464.5L361,474.5L361,504.5Z" style="fill:rgb(255,248,230);fill-rule:nonzero;"/>
                        <rect x="311" y="444.5" width="50" height="30" style="fill:rgb(156,218,130);"/>
                    </g>
                    <g>
                        <path d="M201,444.5L176,454.5L151,444.5L151,374.5L201,374.5L201,444.5Z" style="fill:rgb(255,158,177);fill-rule:nonzero;"/>
                        <path d="M201,504.5L151,504.5L151,474.5L176,464.5L201,474.5L201,504.5Z" style="fill:rgb(255,248,230);fill-rule:nonzero;"/>
                        <rect x="151" y="444.5" width="50" height="30" style="fill:rgb(156,218,130);"/>
                    </g>
                    <path d="M376.12,324.5C350.172,329.042 325.132,332.293 301,334.254C285.632,335.503 270.632,316.228 256,316.43C243.195,316.607 230.672,336.383 218.431,335.758C189.319,334.272 161.802,330.52 135.88,324.5C132.91,331.74 124.04,339.87 124.04,348.79C124.04,382.931 157.037,405.444 166.985,411.456C168.694,412.489 170.847,412.41 172.469,411.244C173.819,410.273 175.609,408.922 177.669,407.206C179.569,405.624 182.432,406.101 183.684,408.233C192.642,423.478 205.394,433.528 210.576,437.215C211.971,438.207 213.828,438.207 215.222,437.214C216.426,436.356 218.04,435.154 219.919,433.623C222.287,431.694 225.782,432.32 227.367,434.931C234.488,446.663 243.775,455.208 249.811,460.011C253.427,462.889 258.572,462.889 262.188,460.011C268.224,455.207 277.511,446.663 284.632,434.931C286.217,432.32 289.711,431.694 292.08,433.623C293.96,435.154 295.573,436.356 296.777,437.214C298.171,438.207 300.029,438.208 301.423,437.215C306.605,433.528 319.357,423.478 328.315,408.233C329.568,406.102 332.43,405.624 334.33,407.206C336.39,408.922 338.179,410.273 339.53,411.244C341.152,412.41 343.305,412.489 345.014,411.456C354.962,405.444 387.959,382.931 387.959,348.79C387.96,339.87 379.09,331.74 376.12,324.5Z" style="fill:rgb(255,248,230);fill-rule:nonzero;"/>
                    <path d="M373.21,196.21C368.69,200.55 358.43,225.26 358.43,225.26L354.7,299.45C353.68,313.06 343.59,324.27 330.16,326.71L256,340.2L181.84,326.71C168.41,324.27 158.32,313.06 157.3,299.45L153.57,225.26L138.79,206.21L116.05,204.31L122.97,266.65C123.68,270.03 124.04,273.47 124.04,276.93L124.04,348.79C124.04,348.79 210.7,363.55 256,365.29C301.3,363.55 387.96,348.79 387.96,348.79L387.96,276.93C387.96,273.47 388.32,270.03 389.03,266.65L395.95,204.31L373.21,196.21Z" style="fill:rgb(255,248,230);fill-rule:nonzero;"/>
                    <path d="M355.05,351.23C319.6,345.49 277.6,329.27 277.6,329.27L256.002,313.202L256.002,313.2L256.001,313.201L256,313.2L256,313.202L234.402,329.27C234.402,329.27 192.402,345.49 156.952,351.23C153.912,371.25 168.092,378.04 185.142,377.77C202.832,377.77 218.602,373.63 230.792,365.79C268.856,339.9 243.2,339.993 281.21,365.79C293.4,373.63 309.17,377.77 326.86,377.77C343.91,378.04 358.09,371.25 355.05,351.23Z" style="fill:rgb(255,241,207);fill-rule:nonzero;"/>
                    <path d="M316.365,311.05C300.861,284.925 273.276,284.459 260.389,290.588C257.603,291.913 254.398,291.913 251.612,290.588C238.724,284.459 211.14,284.925 195.636,311.05C188.422,323.205 174.383,333.491 162.343,340.659C153.641,345.84 155.952,358.998 165.896,360.92C184.185,364.454 206.723,363.48 222.826,353.079C234.669,345.906 242.453,337.587 247.564,329.488C251.476,323.289 260.525,323.289 264.437,329.488C269.548,337.587 277.332,345.906 289.175,353.079C305.217,363.482 327.802,364.452 346.11,360.919C356.053,359 358.365,345.842 349.663,340.662C337.622,333.494 323.58,323.206 316.365,311.05Z" style="fill:rgb(255,248,230);fill-rule:nonzero;"/>
                    <g>
                        <path d="M268.407,54.016L243.593,54.016C172.542,52.136 114.082,108.366 116.048,204.306L138.793,226.21C144.748,231.945 154.695,228.387 155.661,220.176L157.892,201.226C158.655,194.806 162.212,189.156 167.468,186.116C187.007,174.836 206.472,167.256 225.873,163.346C229.025,162.716 232.288,163.906 234.374,166.556C240.09,173.816 247.682,178.236 255.999,178.236C264.316,178.236 271.908,173.816 277.624,166.556C279.71,163.906 282.973,162.716 286.125,163.346C305.526,167.256 324.991,174.836 344.53,186.116C349.787,189.156 353.344,194.806 354.107,201.226L356.338,220.176C357.304,228.387 367.251,231.945 373.206,226.21L395.951,204.306C397.919,108.366 339.458,52.136 268.407,54.016Z" style="fill:rgb(251,241,152);fill-rule:nonzero;"/>
                        <path d="M301,127.5L211,127.5L211,52.5C211,27.647 231.147,7.5 256,7.5C280.853,7.5 301,27.647 301,52.5L301,127.5Z" style="fill:rgb(251,241,152);fill-rule:nonzero;"/>
                        <path d="M321,67.5L191,67.5L191,57.5C191,46.454 199.954,37.5 211,37.5L301,37.5C312.046,37.5 321,46.454 321,57.5L321,67.5Z" style="fill:rgb(251,241,152);fill-rule:nonzero;"/>
                        <g>
                            <path d="M324.462,136.196C329.515,136.381 333.68,132.217 333.494,127.164C333.289,121.57 331.757,114.236 326.112,108.591C320.466,102.945 313.132,101.414 307.539,101.209C302.486,101.024 298.321,105.188 298.507,110.241C298.712,115.835 300.244,123.169 305.889,128.814C311.534,134.46 318.868,135.991 324.462,136.196Z" style="fill:rgb(199,174,228);fill-rule:nonzero;"/>
                            <path d="M187.538,136.196C182.485,136.381 178.32,132.217 178.506,127.164C178.711,121.57 180.243,114.236 185.888,108.591C191.534,102.945 198.868,101.414 204.461,101.209C209.514,101.024 213.679,105.188 213.493,110.241C213.288,115.835 211.756,123.169 206.111,128.814C200.466,134.46 193.132,135.991 187.538,136.196Z" style="fill:rgb(199,174,228);fill-rule:nonzero;"/>
                            <ellipse cx="256" cy="110.836" rx="16" ry="17.866" style="fill:rgb(187,229,167);"/>
                        </g>
                    </g>
                </g>
                <g>
                    <g>
                        <path d="M336.02,37.5C342.19,20.02 358.86,7.5 378.45,7.5C390.88,7.5 402.12,12.54 410.27,20.68C414.96,25.37 418.63,31.1 420.88,37.5" style="fill:none;fill-rule:nonzero;stroke:black;stroke-width:15px;"/>
                        <path d="M409.87,306.4C421.1,311.35 433.29,314.12 446.28,315.11" style="fill:none;fill-rule:nonzero;stroke:black;stroke-width:15px;"/>
                        <path d="M417.86,414.86C417.87,414.87 417.87,414.87 417.88,414.88C429.7,428.77 442.98,436.61 457.14,440.81C461.24,442.02 465.65,440.55 468.16,437.08C478.08,423.36 500.3,383.22 486.08,313.35" style="fill:none;fill-rule:nonzero;stroke:black;stroke-width:15px;"/>
                        <path d="M486.081,313.348C480.866,303.487 469.342,299.31 460.607,302.284C442.682,308.386 447.535,324.703 428.531,339.32C422.491,343.966 424.762,353.577 432.208,355.196C444.222,357.809 457.833,356.272 468.533,347.532C483.597,335.226 486.081,313.348 486.081,313.348Z" style="fill:none;fill-rule:nonzero;stroke:black;stroke-width:15px;"/>
                        <path d="M439.8,62.3C451.98,67.25 461.98,74.39 467.86,83.72C491.75,121.58 461.95,165.65 461.95,165.65C441.89,153.04 415.21,153.04 397.47,154.95" style="fill:none;fill-rule:nonzero;stroke:black;stroke-width:15px;"/>
                        <path d="M374,67.5L328.45,67.5" style="fill:none;fill-rule:nonzero;stroke:black;stroke-width:15px;"/>
                        <path d="M317.84,41.9C320.56,39.18 324.31,37.5 328.45,37.5L428.45,37.5C436.74,37.5 443.45,44.22 443.45,52.5C443.45,56.25 442.07,59.67 439.8,62.3C439.57,62.58 439.32,62.84 439.06,63.1C436.34,65.82 432.6,67.5 428.45,67.5L409,67.5" style="fill:none;fill-rule:nonzero;stroke:black;stroke-width:15px;"/>
                        <path d="M484.5,258.04C496.16,262.85 504.5,275.81 504.5,291.05C504.5,304.83 497.68,316.75 487.75,322.45" style="fill:none;fill-rule:nonzero;stroke:black;stroke-width:15px;"/>
                        <path d="M461.95,165.65C476.05,190.69 484.5,222.69 484.5,257.56L484.5,258.04" style="fill:none;fill-rule:nonzero;stroke:black;stroke-width:15px;"/>
                        <path d="M453.551,257.787L453.551,269.787" style="fill:none;fill-rule:nonzero;stroke:black;stroke-width:15px;"/>
                        <g>
                            <path d="M474.62,194.52L441,189.72" style="fill:none;fill-rule:nonzero;stroke:black;stroke-width:15px;"/>
                            <path d="M482.07,225.59L441,219.72" style="fill:none;fill-rule:nonzero;stroke:black;stroke-width:15px;"/>
                        </g>
                    </g>
                    <g>
                        <path d="M91.12,37.5C93.37,31.1 97.04,25.37 101.73,20.68C109.88,12.54 121.12,7.5 133.55,7.5C153.14,7.5 169.81,20.02 175.98,37.5" style="fill:none;fill-rule:nonzero;stroke:black;stroke-width:15px;"/>
                        <path d="M65.72,315.11C78.71,314.12 90.9,311.35 102.13,306.4" style="fill:none;fill-rule:nonzero;stroke:black;stroke-width:15px;"/>
                        <path d="M25.92,313.35C11.7,383.22 33.92,423.36 43.84,437.08C46.35,440.55 50.76,442.02 54.86,440.81C69.02,436.61 82.3,428.77 94.12,414.88C94.13,414.87 94.13,414.87 94.14,414.86" style="fill:none;fill-rule:nonzero;stroke:black;stroke-width:15px;"/>
                        <path d="M25.919,313.348C31.134,303.487 42.658,299.31 51.393,302.284C69.318,308.386 64.465,324.703 83.469,339.32C89.509,343.966 87.238,353.577 79.792,355.196C67.778,357.809 54.167,356.272 43.467,347.532C28.403,335.226 25.919,313.348 25.919,313.348Z" style="fill:none;fill-rule:nonzero;stroke:black;stroke-width:15px;"/>
                        <path d="M114.53,154.95C96.79,153.04 70.11,153.04 50.05,165.65C50.05,165.65 20.25,121.58 44.14,83.72C50.02,74.39 60.02,67.25 72.2,62.3" style="fill:none;fill-rule:nonzero;stroke:black;stroke-width:15px;"/>
                        <path d="M183.55,67.5L83.55,67.5C79.4,67.5 75.66,65.82 72.94,63.1C72.68,62.84 72.43,62.58 72.2,62.3C69.93,59.67 68.55,56.25 68.55,52.5C68.55,44.22 75.26,37.5 83.55,37.5L183.55,37.5C187.69,37.5 191.44,39.18 194.16,41.9" style="fill:none;fill-rule:nonzero;stroke:black;stroke-width:15px;"/>
                        <path d="M24.25,322.45C14.32,316.75 7.5,304.83 7.5,291.05C7.5,275.81 15.84,262.85 27.5,258.04" style="fill:none;fill-rule:nonzero;stroke:black;stroke-width:15px;"/>
                        <path d="M27.5,258.04L27.5,257.56C27.5,222.69 35.95,190.69 50.05,165.65" style="fill:none;fill-rule:nonzero;stroke:black;stroke-width:15px;"/>
                        <path d="M58.449,257.787L58.449,269.787" style="fill:none;fill-rule:nonzero;stroke:black;stroke-width:15px;"/>
                        <g>
                            <path d="M71,189.72L37.38,194.52" style="fill:none;fill-rule:nonzero;stroke:black;stroke-width:15px;"/>
                            <path d="M71,219.72L29.93,225.59" style="fill:none;fill-rule:nonzero;stroke:black;stroke-width:15px;"/>
                        </g>
                    </g>
                    <path d="M383.42,370.38C416.488,401.806 437.955,445.346 440.701,493.888C441.027,499.642 436.477,504.5 430.715,504.5L81.286,504.5C75.523,504.5 70.974,499.642 71.3,493.888C74.046,445.346 95.513,401.806 128.581,370.38" style="fill:none;fill-rule:nonzero;stroke:black;stroke-width:15px;"/>
                    <g>
                        <path d="M387.96,320.85C406.04,317.62 419.96,297.89 419.96,274.05C419.96,255.04 411.11,238.65 398.35,231.16L398.34,231.16" style="fill:none;fill-rule:nonzero;stroke:black;stroke-width:15px;"/>
                        <path d="M124.04,320.85C105.96,317.62 92.04,297.89 92.04,274.05C92.04,255.04 100.89,238.65 113.65,231.16L113.66,231.16" style="fill:none;fill-rule:nonzero;stroke:black;stroke-width:15px;"/>
                    </g>
                    <g>
                        <path d="M193.551,257.787L193.551,269.787" style="fill:none;fill-rule:nonzero;stroke:black;stroke-width:15px;"/>
                        <path d="M318.449,257.787L318.449,269.787" style="fill:none;fill-rule:nonzero;stroke:black;stroke-width:15px;"/>
                    </g>
                    <path d="M311,504.5L311,429.4" style="fill:none;fill-rule:nonzero;stroke:black;stroke-width:15px;"/>
                    <path d="M361,399.75L361,504.5" style="fill:none;fill-rule:nonzero;stroke:black;stroke-width:15px;"/>
                    <rect x="311" y="444.5" width="50" height="30" style="fill:none;stroke:black;stroke-width:15px;"/>
                    <path d="M151,504.5L151,399.75" style="fill:none;fill-rule:nonzero;stroke:black;stroke-width:15px;"/>
                    <path d="M201,429.4L201,504.5" style="fill:none;fill-rule:nonzero;stroke:black;stroke-width:15px;"/>
                    <rect x="151" y="444.5" width="50" height="30" style="fill:none;stroke:black;stroke-width:15px;"/>
                    <path d="M316.365,311.05C300.861,284.925 273.276,284.459 260.389,290.588C257.603,291.913 254.398,291.913 251.612,290.588C238.724,284.459 211.14,284.925 195.636,311.05C188.422,323.205 174.383,333.491 162.343,340.659C153.641,345.84 155.952,358.998 165.896,360.92C184.185,364.454 206.723,363.48 222.826,353.079C234.669,345.906 242.453,337.587 247.564,329.488C251.476,323.289 260.525,323.289 264.437,329.488C269.548,337.587 277.332,345.906 289.175,353.079C305.217,363.482 327.802,364.452 346.11,360.919C356.053,359 358.365,345.842 349.663,340.662C337.622,333.494 323.58,323.206 316.365,311.05Z" style="fill:none;fill-rule:nonzero;stroke:black;stroke-width:15px;"/>
                    <path d="M213.57,37.5C219.74,20.02 236.41,7.5 256,7.5C268.42,7.5 279.68,12.54 287.82,20.68C292.51,25.37 296.18,31.1 298.43,37.5" style="fill:none;fill-rule:nonzero;stroke:black;stroke-width:15px;"/>
                    <path d="M191,64.28L191,57.5C191,46.45 199.95,37.5 211,37.5L301,37.5C312.05,37.5 321,46.45 321,57.5L321,64.28" style="fill:none;fill-rule:nonzero;stroke:black;stroke-width:15px;"/>
                    <g>
                        <path d="M324.462,136.196C329.515,136.381 333.68,132.217 333.494,127.164C333.289,121.57 331.757,114.236 326.112,108.591C320.466,102.945 313.132,101.414 307.539,101.209C302.486,101.024 298.321,105.188 298.507,110.241C298.712,115.835 300.244,123.169 305.889,128.814C311.534,134.46 318.868,135.991 324.462,136.196Z" style="fill:none;fill-rule:nonzero;stroke:black;stroke-width:15px;"/>
                        <path d="M187.538,136.196C182.485,136.381 178.32,132.217 178.506,127.164C178.711,121.57 180.243,114.236 185.888,108.591C191.534,102.945 198.868,101.414 204.461,101.209C209.514,101.024 213.679,105.188 213.493,110.241C213.288,115.835 211.756,123.169 206.111,128.814C200.466,134.46 193.132,135.991 187.538,136.196Z" style="fill:none;fill-rule:nonzero;stroke:black;stroke-width:15px;"/>
                        <ellipse cx="256" cy="110.836" rx="16" ry="17.866" style="fill:none;stroke:black;stroke-width:15px;"/>
                    </g>
                    <path d="M221.002,207.72L291.002,207.72" style="fill:none;fill-rule:nonzero;stroke:black;stroke-width:15px;"/>
                    <path d="M221.002,237.72L291.002,237.72" style="fill:none;fill-rule:nonzero;stroke:black;stroke-width:15px;"/>
                    <path d="M124.04,348.79C124.04,382.931 157.037,405.444 166.985,411.456C168.694,412.489 170.847,412.41 172.469,411.244C173.819,410.273 175.609,408.922 177.669,407.206C179.569,405.624 182.432,406.101 183.684,408.233C192.642,423.478 205.394,433.528 210.576,437.215C211.971,438.207 213.828,438.207 215.222,437.214C216.426,436.356 218.04,435.154 219.919,433.623C222.287,431.694 225.782,432.32 227.367,434.931C234.488,446.663 243.775,455.208 249.811,460.011C253.427,462.889 258.572,462.889 262.188,460.011C268.224,455.207 277.511,446.663 284.632,434.931C286.217,432.32 289.711,431.694 292.08,433.623C293.96,435.154 295.573,436.356 296.777,437.214C298.171,438.207 300.029,438.208 301.423,437.215C306.605,433.528 319.357,423.478 328.315,408.233C329.568,406.102 332.43,405.624 334.33,407.206C336.39,408.922 338.179,410.273 339.53,411.244C341.152,412.41 343.305,412.489 345.014,411.456C354.962,405.444 387.959,382.931 387.959,348.79" style="fill:none;fill-rule:nonzero;stroke:black;stroke-width:15px;"/>
                    <path d="M387.96,348.79L387.96,276.93C387.96,273.47 395.95,204.31 395.95,204.31" style="fill:none;fill-rule:nonzero;stroke:black;stroke-width:15px;"/>
                    <path d="M116.05,204.31C116.05,204.31 124.04,273.47 124.04,276.93L124.04,348.79" style="fill:none;fill-rule:nonzero;stroke:black;stroke-width:15px;"/>
                    <path d="M330.03,326.73L330.16,326.71C343.59,324.27 353.68,313.06 354.7,299.45L358.43,225.26" style="fill:none;fill-rule:nonzero;stroke:black;stroke-width:15px;"/>
                    <path d="M156.95,292.43L157.3,299.45C158.32,313.06 168.41,324.27 181.84,326.71L181.96,326.73" style="fill:none;fill-rule:nonzero;stroke:black;stroke-width:15px;"/>
                    <path d="M155.19,257.47L153.57,225.26" style="fill:none;fill-rule:nonzero;stroke:black;stroke-width:15px;"/>
                    <path d="M321,64.28C366.04,84.47 397.4,133.61 395.95,204.31L373.21,226.21C367.25,231.94 357.3,228.39 356.34,220.18L354.11,201.23C353.34,194.81 349.79,189.16 344.53,186.12C324.99,174.84 305.53,167.26 286.13,163.35C282.97,162.72 279.71,163.91 277.63,166.56C271.91,173.82 264.32,178.24 256,178.24C247.68,178.24 240.09,173.82 234.37,166.56C232.29,163.91 229.03,162.72 225.87,163.35C206.47,167.26 187.01,174.84 167.47,186.12C162.21,189.16 158.66,194.81 157.89,201.23L155.66,220.18C154.7,228.39 144.75,231.94 138.79,226.21L116.05,204.31C114.6,133.61 145.96,84.47 191,64.28" style="fill:none;fill-rule:nonzero;stroke:black;stroke-width:15px;"/>
                </g>
            </g>
        </g>
    </g>
    <g transform="matrix(1,0,0,1,492.642,-631.86)">
        <g transform="matrix(160,0,0,160,490.293,900.091)">
        </g>
        <text x="-14.942px" y="900.091px" style="font-family:'SamarkanNormal', 'Samarkan', sans-serif;font-size:160px;">SHLOKAS</text>
    </g>
    <g transform="matrix(1,0,0,1,646.213,-628.963)">
        <g transform="matrix(54,0,0,54,338.171,989.441)">
        </g>
        <text x="-167.288px" y="989.441px" style="font-family:'Charter-Italic', 'Charter', serif;font-style:italic;font-size:54px;">spiritualize your mind</text>
    </g>
</svg>
