<?xml version="1.0" encoding="UTF-8" standalone="no"?>
<!DOCTYPE svg PUBLIC "-//W3C//DTD SVG 1.1//EN" "http://www.w3.org/Graphics/SVG/1.1/DTD/svg11.dtd">
<svg width="100%" height="100%" viewBox="0 0 1080 400" version="1.1" xmlns="http://www.w3.org/2000/svg" xmlns:xlink="http://www.w3.org/1999/xlink" xml:space="preserve" xmlns:serif="http://www.serif.com/" style="fill-rule:evenodd;clip-rule:evenodd;stroke-linecap:round;stroke-linejoin:round;stroke-miterlimit:10;">
    <g transform="matrix(0.648785,0,0,0.648785,192.428,200)">
        <g transform="matrix(1,0,0,1,-256,-256)">
            <g>
                <g>
                    <g>
                        <ellipse cx="474.5" cy="291.052" rx="30" ry="35" style="fill:rgb(255,212,190);"/>
                        <g>
                            <path d="M484.5,257.56C484.5,337.8 439.73,402.85 384.5,402.85C329.27,402.85 284.5,337.8 284.5,257.56C284.5,177.32 329.27,112.26 384.5,112.26C421.97,112.26 454.63,142.21 471.75,186.53C472.717,189.03 464.404,190.997 465.27,193.586C466.177,196.298 476.257,199.636 477.04,202.44C478.46,207.43 479.69,212.56 480.71,217.81C481.196,220.294 474.106,222.037 474.5,224.572C474.909,227.202 482.799,230.627 483.11,233.31C484.03,241.2 484.5,249.3 484.5,257.56Z" style="fill:rgb(255,212,190);fill-rule:nonzero;"/>
                        </g>
                        <g>
                            <path d="M465.27,343.21C447.1,379.36 417.69,402.85 384.5,402.85C329.27,402.85 284.5,337.8 284.5,257.56C284.5,177.32 329.27,112.26 384.5,112.26C400.56,112.26 415.74,117.76 429.19,127.54C426.84,144.73 425.58,162.81 425.58,181.47C425.58,247.08 441.1,305.51 465.27,343.21Z" style="fill:rgb(255,191,158);fill-rule:nonzero;"/>
                        </g>
                        <path d="M423.451,127.5L333.451,127.5L333.451,52.5C333.451,27.647 353.598,7.5 378.451,7.5C403.304,7.5 423.451,27.647 423.451,52.5L423.451,127.5Z" style="fill:rgb(249,209,113);fill-rule:nonzero;"/>
                        <path d="M461.952,165.646C429.092,144.986 378.45,158.18 378.45,158.18C300.732,97.708 265.478,51.298 378.45,53.97L393.45,53.97C424.459,53.97 455.403,63.97 467.864,83.716C491.755,121.575 461.952,165.646 461.952,165.646Z" style="fill:rgb(249,209,113);fill-rule:nonzero;"/>
                        <path d="M486.081,313.348C446.071,319.16 411.18,314.107 384.5,289.931C342.421,324.716 326.751,380.125 378.451,421.414C378.451,421.414 407.72,428.688 417.865,414.863C429.693,428.763 442.975,436.61 457.136,440.805C461.237,442.02 465.651,440.551 468.156,437.084C478.075,423.355 500.305,383.224 486.081,313.348Z" style="fill:rgb(255,248,230);fill-rule:nonzero;"/>
                        <path d="M478.02,359.15C468.045,372.974 444.99,376.737 429.02,369.85C407.762,360.683 412.471,340.2 431.884,336.508C439.197,335.118 455.575,322.061 455.575,322.061C455.575,322.061 466.16,316.239 486.08,313.349C488.39,324.68 487.01,346.692 478.02,359.15Z" style="fill:rgb(255,241,207);fill-rule:nonzero;"/>
                        <path d="M486.081,313.348C480.866,303.487 469.342,299.31 460.607,302.284C442.682,308.386 447.535,324.703 428.531,339.32C422.491,343.966 424.762,353.577 432.208,355.196C444.222,357.809 457.833,356.272 468.533,347.532C483.597,335.226 486.081,313.348 486.081,313.348Z" style="fill:rgb(255,248,230);fill-rule:nonzero;"/>
                        <path d="M417.27,415.61C406.64,428.42 378.45,421.41 378.45,421.41C326.75,380.13 342.42,324.72 384.5,289.93C391.89,296.63 399.91,301.86 408.5,305.79C403.79,319.65 401.21,334.78 401.21,350.63C401.21,374.56 407.11,396.87 417.27,415.61Z" style="fill:rgb(255,241,207);fill-rule:nonzero;"/>
                        <path d="M428.451,67.5L328.451,67.5C320.167,67.5 313.451,60.784 313.451,52.5C313.451,44.216 320.167,37.5 328.451,37.5L428.451,37.5C436.735,37.5 443.451,44.216 443.451,52.5C443.451,60.784 436.735,67.5 428.451,67.5Z" style="fill:rgb(249,209,113);fill-rule:nonzero;"/>
                    </g>
                    <g>
                        <ellipse cx="37.5" cy="291.052" rx="30" ry="35" style="fill:rgb(255,212,190);"/>
                        <g>
                            <path d="M27.5,257.56C27.5,337.8 72.27,402.85 127.5,402.85C182.73,402.85 227.5,337.8 227.5,257.56C227.5,177.32 182.73,112.26 127.5,112.26C90.03,112.26 57.37,142.21 40.25,186.53C39.283,189.03 47.596,190.997 46.73,193.586C45.823,196.298 35.743,199.636 34.96,202.44C33.54,207.43 32.31,212.56 31.29,217.81C30.804,220.294 37.894,222.037 37.5,224.572C37.091,227.202 29.201,230.627 28.89,233.31C27.97,241.2 27.5,249.3 27.5,257.56Z" style="fill:rgb(255,212,190);fill-rule:nonzero;"/>
                        </g>
                        <g>
                            <path d="M46.73,343.21C64.9,379.36 94.31,402.85 127.5,402.85C182.73,402.85 227.5,337.8 227.5,257.56C227.5,177.32 182.73,112.26 127.5,112.26C111.44,112.26 96.26,117.76 82.81,127.54C85.16,144.73 86.42,162.81 86.42,181.47C86.42,247.08 70.9,305.51 46.73,343.21Z" style="fill:rgb(255,191,158);fill-rule:nonzero;"/>
                        </g>
                        <path d="M88.549,127.5L178.549,127.5L178.549,52.5C178.549,27.647 158.402,7.5 133.549,7.5C108.696,7.5 88.549,27.647 88.549,52.5L88.549,127.5Z" style="fill:rgb(249,209,113);fill-rule:nonzero;"/>
                        <path d="M50.048,165.646C82.908,144.986 133.55,158.18 133.55,158.18C211.268,97.708 246.522,51.298 133.55,53.97L118.55,53.97C87.541,53.97 56.597,63.97 44.136,83.716C20.245,121.575 50.048,165.646 50.048,165.646Z" style="fill:rgb(249,209,113);fill-rule:nonzero;"/>
                        <path d="M25.919,313.348C65.929,319.16 100.82,314.107 127.5,289.931C169.579,324.716 185.249,380.125 133.549,421.414C133.549,421.414 104.28,428.688 94.135,414.863C82.307,428.763 69.025,436.61 54.864,440.805C50.763,442.02 46.349,440.551 43.844,437.084C33.925,423.355 11.695,383.224 25.919,313.348Z" style="fill:rgb(255,248,230);fill-rule:nonzero;"/>
                        <path d="M33.98,359.15C43.955,372.974 67.009,376.737 82.98,369.85C104.238,360.683 99.529,340.2 80.116,336.508C72.803,335.118 56.425,322.061 56.425,322.061C56.425,322.061 45.84,316.24 25.92,313.35C23.61,324.68 24.99,346.692 33.98,359.15Z" style="fill:rgb(255,241,207);fill-rule:nonzero;"/>
                        <path d="M25.919,313.348C31.134,303.487 42.658,299.31 51.393,302.284C69.318,308.386 64.465,324.703 83.469,339.32C89.509,343.966 87.238,353.577 79.792,355.196C67.778,357.809 54.167,356.272 43.467,347.532C28.403,335.226 25.919,313.348 25.919,313.348Z" style="fill:rgb(255,248,230);fill-rule:nonzero;"/>
                        <path d="M94.73,415.61C105.36,428.42 133.55,421.41 133.55,421.41C185.25,380.13 169.58,324.72 127.5,289.93C120.11,296.63 112.09,301.86 103.5,305.79C108.21,319.65 110.79,334.78 110.79,350.63C110.79,374.56 104.89,396.87 94.73,415.61Z" style="fill:rgb(255,241,207);fill-rule:nonzero;"/>
                        <path d="M83.549,67.5L183.549,67.5C191.833,67.5 198.549,60.784 198.549,52.5C198.549,44.216 191.833,37.5 183.549,37.5L83.549,37.5C75.265,37.5 68.549,44.216 68.549,52.5C68.549,60.784 75.265,67.5 83.549,67.5Z" style="fill:rgb(249,209,113);fill-rule:nonzero;"/>
                    </g>
                    <path d="M430.71,504.5L361,504.5L341,494.5L311,504.5L201,504.5L171,494.5L151,504.5L81.29,504.5C75.53,504.5 70.97,499.65 71.3,493.91C76.79,396.67 157.39,319.5 256,319.5C354.61,319.5 435.21,396.67 440.7,493.91C441.03,499.65 436.47,504.5 430.71,504.5Z" style="fill:rgb(255,212,190);fill-rule:nonzero;"/>
                    <g>
                        <ellipse cx="382.706" cy="274.052" rx="37.255" ry="47.263" style="fill:rgb(255,212,190);"/>
                        <g>
                            <ellipse cx="256" cy="257.559" rx="139.706" ry="145.294" style="fill:rgb(255,212,190);"/>
                        </g>
                        <ellipse cx="129.294" cy="274.052" rx="37.255" ry="47.263" style="fill:rgb(255,212,190);"/>
                        <g>
                            <path d="M362.49,351.61C336.87,382.96 298.67,402.85 256,402.85C178.84,402.85 126.29,337.8 126.29,257.56C126.29,184.32 168.41,123.72 236.18,113.71C228.04,135.13 223.5,159.02 223.5,184.2C223.5,276.67 284.74,351.63 360.28,351.63C361.02,351.63 361.75,351.62 362.49,351.61Z" style="fill:rgb(255,191,158);fill-rule:nonzero;"/>
                        </g>
                    </g>
                    <g>
                        <path d="M361,444.5L336,454.5L311,444.5L311,374.5L361,374.5L361,444.5Z" style="fill:rgb(255,158,177);fill-rule:nonzero;"/>
                        <path d="M361,504.5L311,504.5L311,474.5L336,464.5L361,474.5L361,504.5Z" style="fill:rgb(255,248,230);fill-rule:nonzero;"/>
                        <rect x="311" y="444.5" width="50" height="30" style="fill:rgb(156,218,130);"/>
                    </g>
                    <g>
                        <path d="M201,444.5L176,454.5L151,444.5L151,374.5L201,374.5L201,444.5Z" style="fill:rgb(255,158,177);fill-rule:nonzero;"/>
                        <path d="M201,504.5L151,504.5L151,474.5L176,464.5L201,474.5L201,504.5Z" style="fill:rgb(255,248,230);fill-rule:nonzero;"/>
                        <rect x="151" y="444.5" width="50" height="30" style="fill:rgb(156,218,130);"/>
                    </g>
                    <path d="M376.12,324.5C350.172,329.042 325.132,332.293 301,334.254C285.632,335.503 270.632,316.228 256,316.43C243.195,316.607 230.672,336.383 218.431,335.758C189.319,334.272 161.802,330.52 135.88,324.5C132.91,331.74 124.04,339.87 124.04,348.79C124.04,382.931 157.037,405.444 166.985,411.456C168.694,412.489 170.847,412.41 172.469,411.244C173.819,410.273 175.609,408.922 177.669,407.206C179.569,405.624 182.432,406.101 183.684,408.233C192.642,423.478 205.394,433.528 210.576,437.215C211.971,438.207 213.828,438.207 215.222,437.214C216.426,436.356 218.04,435.154 219.919,433.623C222.287,431.694 225.782,432.32 227.367,434.931C234.488,446.663 243.775,455.208 249.811,460.011C253.427,462.889 258.572,462.889 262.188,460.011C268.224,455.207 277.511,446.663 284.632,434.931C286.217,432.32 289.711,431.694 292.08,433.623C293.96,435.154 295.573,436.356 296.777,437.214C298.171,438.207 300.029,438.208 301.423,437.215C306.605,433.528 319.357,423.478 328.315,408.233C329.568,406.102 332.43,405.624 334.33,407.206C336.39,408.922 338.179,410.273 339.53,411.244C341.152,412.41 343.305,412.489 345.014,411.456C354.962,405.444 387.959,382.931 387.959,348.79C387.96,339.87 379.09,331.74 376.12,324.5Z" style="fill:rgb(255,248,230);fill-rule:nonzero;"/>
                    <path d="M373.21,196.21C368.69,200.55 358.43,225.26 358.43,225.26L354.7,299.45C353.68,313.06 343.59,324.27 330.16,326.71L256,340.2L181.84,326.71C168.41,324.27 158.32,313.06 157.3,299.45L153.57,225.26L138.79,206.21L116.05,204.31L122.97,266.65C123.68,270.03 124.04,273.47 124.04,276.93L124.04,348.79C124.04,348.79 210.7,363.55 256,365.29C301.3,363.55 387.96,348.79 387.96,348.79L387.96,276.93C387.96,273.47 388.32,270.03 389.03,266.65L395.95,204.31L373.21,196.21Z" style="fill:rgb(255,248,230);fill-rule:nonzero;"/>
                    <path d="M355.05,351.23C319.6,345.49 277.6,329.27 277.6,329.27L256.002,313.202L256.002,313.2L256.001,313.201L256,313.2L256,313.202L234.402,329.27C234.402,329.27 192.402,345.49 156.952,351.23C153.912,371.25 168.092,378.04 185.142,377.77C202.832,377.77 218.602,373.63 230.792,365.79C268.856,339.9 243.2,339.993 281.21,365.79C293.4,373.63 309.17,377.77 326.86,377.77C343.91,378.04 358.09,371.25 355.05,351.23Z" style="fill:rgb(255,241,207);fill-rule:nonzero;"/>
                    <path d="M316.365,311.05C300.861,284.925 273.276,284.459 260.389,290.588C257.603,291.913 254.398,291.913 251.612,290.588C238.724,284.459 211.14,284.925 195.636,311.05C188.422,323.205 174.383,333.491 162.343,340.659C153.641,345.84 155.952,358.998 165.896,360.92C184.185,364.454 206.723,363.48 222.826,353.079C234.669,345.906 242.453,337.587 247.564,329.488C251.476,323.289 260.525,323.289 264.437,329.488C269.548,337.587 277.332,345.906 289.175,353.079C305.217,363.482 327.802,364.452 346.11,360.919C356.053,359 358.365,345.842 349.663,340.662C337.622,333.494 323.58,323.206 316.365,311.05Z" style="fill:rgb(255,248,230);fill-rule:nonzero;"/>
                    <g>
                        <path d="M268.407,54.016L243.593,54.016C172.542,52.136 114.082,108.366 116.048,204.306L138.793,226.21C144.748,231.945 154.695,228.387 155.661,220.176L157.892,201.226C158.655,194.806 162.212,189.156 167.468,186.116C187.007,174.836 206.472,167.256 225.873,163.346C229.025,162.716 232.288,163.906 234.374,166.556C240.09,173.816 247.682,178.236 255.999,178.236C264.316,178.236 271.908,173.816 277.624,166.556C279.71,163.906 282.973,162.716 286.125,163.346C305.526,167.256 324.991,174.836 344.53,186.116C349.787,189.156 353.344,194.806 354.107,201.226L356.338,220.176C357.304,228.387 367.251,231.945 373.206,226.21L395.951,204.306C397.919,108.366 339.458,52.136 268.407,54.016Z" style="fill:rgb(251,241,152);fill-rule:nonzero;"/>
                        <path d="M301,127.5L211,127.5L211,52.5C211,27.647 231.147,7.5 256,7.5C280.853,7.5 301,27.647 301,52.5L301,127.5Z" style="fill:rgb(251,241,152);fill-rule:nonzero;"/>
                        <path d="M321,67.5L191,67.5L191,57.5C191,46.454 199.954,37.5 211,37.5L301,37.5C312.046,37.5 321,46.454 321,57.5L321,67.5Z" style="fill:rgb(251,241,152);fill-rule:nonzero;"/>
                        <g>
                            <path d="M324.462,136.196C329.515,136.381 333.68,132.217 333.494,127.164C333.289,121.57 331.757,114.236 326.112,108.591C320.466,102.945 313.132,101.414 307.539,101.209C302.486,101.024 298.321,105.188 298.507,110.241C298.712,115.835 300.244,123.169 305.889,128.814C311.534,134.46 318.868,135.991 324.462,136.196Z" style="fill:rgb(199,174,228);fill-rule:nonzero;"/>
                            <path d="M187.538,136.196C182.485,136.381 178.32,132.217 178.506,127.164C178.711,121.57 180.243,114.236 185.888,108.591C191.534,102.945 198.868,101.414 204.461,101.209C209.514,101.024 213.679,105.188 213.493,110.241C213.288,115.835 211.756,123.169 206.111,128.814C200.466,134.46 193.132,135.991 187.538,136.196Z" style="fill:rgb(199,174,228);fill-rule:nonzero;"/>
                            <ellipse cx="256" cy="110.836" rx="16" ry="17.866" style="fill:rgb(187,229,167);"/>
                        </g>
                    </g>
                </g>
                <g>
                    <g>
                        <path d="M336.02,37.5C342.19,20.02 358.86,7.5 378.45,7.5C390.88,7.5 402.12,12.54 410.27,20.68C414.96,25.37 418.63,31.1 420.88,37.5" style="fill:none;fill-rule:nonzero;stroke:black;stroke-width:15px;"/>
                        <path d="M409.87,306.4C421.1,311.35 433.29,314.12 446.28,315.11" style="fill:none;fill-rule:nonzero;stroke:black;stroke-width:15px;"/>
                        <path d="M417.86,414.86C417.87,414.87 417.87,414.87 417.88,414.88C429.7,428.77 442.98,436.61 457.14,440.81C461.24,442.02 465.65,440.55 468.16,437.08C478.08,423.36 500.3,383.22 486.08,313.35" style="fill:none;fill-rule:nonzero;stroke:black;stroke-width:15px;"/>
                        <path d="M486.081,313.348C480.866,303.487 469.342,299.31 460.607,302.284C442.682,308.386 447.535,324.703 428.531,339.32C422.491,343.966 424.762,353.577 432.208,355.196C444.222,357.809 457.833,356.272 468.533,347.532C483.597,335.226 486.081,313.348 486.081,313.348Z" style="fill:none;fill-rule:nonzero;stroke:black;stroke-width:15px;"/>
                        <path d="M439.8,62.3C451.98,67.25 461.98,74.39 467.86,83.72C491.75,121.58 461.95,165.65 461.95,165.65C441.89,153.04 415.21,153.04 397.47,154.95" style="fill:none;fill-rule:nonzero;stroke:black;stroke-width:15px;"/>
                        <path d="M374,67.5L328.45,67.5" style="fill:none;fill-rule:nonzero;stroke:black;stroke-width:15px;"/>
                        <path d="M317.84,41.9C320.56,39.18 324.31,37.5 328.45,37.5L428.45,37.5C436.74,37.5 443.45,44.22 443.45,52.5C443.45,56.25 442.07,59.67 439.8,62.3C439.57,62.58 439.32,62.84 439.06,63.1C436.34,65.82 432.6,67.5 428.45,67.5L409,67.5" style="fill:none;fill-rule:nonzero;stroke:black;stroke-width:15px;"/>
                        <path d="M484.5,258.04C496.16,262.85 504.5,275.81 504.5,291.05C504.5,304.83 497.68,316.75 487.75,322.45" style="fill:none;fill-rule:nonzero;stroke:black;stroke-width:15px;"/>
                        <path d="M461.95,165.65C476.05,190.69 484.5,222.69 484.5,257.56L484.5,258.04" style="fill:none;fill-rule:nonzero;stroke:black;stroke-width:15px;"/>
                        <path d="M453.551,257.787L453.551,269.787" style="fill:none;fill-rule:nonzero;stroke:black;stroke-width:15px;"/>
                        <g>
                            <path d="M474.62,194.52L441,189.72" style="fill:none;fill-rule:nonzero;stroke:black;stroke-width:15px;"/>
                            <path d="M482.07,225.59L441,219.72" style="fill:none;fill-rule:nonzero;stroke:black;stroke-width:15px;"/>
                        </g>
                    </g>
                    <g>
                        <path d="M91.12,37.5C93.37,31.1 97.04,25.37 101.73,20.68C109.88,12.54 121.12,7.5 133.55,7.5C153.14,7.5 169.81,20.02 175.98,37.5" style="fill:none;fill-rule:nonzero;stroke:black;stroke-width:15px;"/>
                        <path d="M65.72,315.11C78.71,314.12 90.9,311.35 102.13,306.4" style="fill:none;fill-rule:nonzero;stroke:black;stroke-width:15px;"/>
                        <path d="M25.92,313.35C11.7,383.22 33.92,423.36 43.84,437.08C46.35,440.55 50.76,442.02 54.86,440.81C69.02,436.61 82.3,428.77 94.12,414.88C94.13,414.87 94.13,414.87 94.14,414.86" style="fill:none;fill-rule:nonzero;stroke:black;stroke-width:15px;"/>
                        <path d="M25.919,313.348C31.134,303.487 42.658,299.31 51.393,302.284C69.318,308.386 64.465,324.703 83.469,339.32C89.509,343.966 87.238,353.577 79.792,355.196C67.778,357.809 54.167,356.272 43.467,347.532C28.403,335.226 25.919,313.348 25.919,313.348Z" style="fill:none;fill-rule:nonzero;stroke:black;stroke-width:15px;"/>
                        <path d="M114.53,154.95C96.79,153.04 70.11,153.04 50.05,165.65C50.05,165.65 20.25,121.58 44.14,83.72C50.02,74.39 60.02,67.25 72.2,62.3" style="fill:none;fill-rule:nonzero;stroke:black;stroke-width:15px;"/>
                        <path d="M183.55,67.5L83.55,67.5C79.4,67.5 75.66,65.82 72.94,63.1C72.68,62.84 72.43,62.58 72.2,62.3C69.93,59.67 68.55,56.25 68.55,52.5C68.55,44.22 75.26,37.5 83.55,37.5L183.55,37.5C187.69,37.5 191.44,39.18 194.16,41.9" style="fill:none;fill-rule:nonzero;stroke:black;stroke-width:15px;"/>
                        <path d="M24.25,322.45C14.32,316.75 7.5,304.83 7.5,291.05C7.5,275.81 15.84,262.85 27.5,258.04" style="fill:none;fill-rule:nonzero;stroke:black;stroke-width:15px;"/>
                        <path d="M27.5,258.04L27.5,257.56C27.5,222.69 35.95,190.69 50.05,165.65" style="fill:none;fill-rule:nonzero;stroke:black;stroke-width:15px;"/>
                        <path d="M58.449,257.787L58.449,269.787" style="fill:none;fill-rule:nonzero;stroke:black;stroke-width:15px;"/>
                        <g>
                            <path d="M71,189.72L37.38,194.52" style="fill:none;fill-rule:nonzero;stroke:black;stroke-width:15px;"/>
                            <path d="M71,219.72L29.93,225.59" style="fill:none;fill-rule:nonzero;stroke:black;stroke-width:15px;"/>
                        </g>
                    </g>
                    <path d="M383.42,370.38C416.488,401.806 437.955,445.346 440.701,493.888C441.027,499.642 436.477,504.5 430.715,504.5L81.286,504.5C75.523,504.5 70.974,499.642 71.3,493.888C74.046,445.346 95.513,401.806 128.581,370.38" style="fill:none;fill-rule:nonzero;stroke:black;stroke-width:15px;"/>
                    <g>
                        <path d="M387.96,320.85C406.04,317.62 419.96,297.89 419.96,274.05C419.96,255.04 411.11,238.65 398.35,231.16L398.34,231.16" style="fill:none;fill-rule:nonzero;stroke:black;stroke-width:15px;"/>
                        <path d="M124.04,320.85C105.96,317.62 92.04,297.89 92.04,274.05C92.04,255.04 100.89,238.65 113.65,231.16L113.66,231.16" style="fill:none;fill-rule:nonzero;stroke:black;stroke-width:15px;"/>
                    </g>
                    <g>
                        <path d="M193.551,257.787L193.551,269.787" style="fill:none;fill-rule:nonzero;stroke:black;stroke-width:15px;"/>
                        <path d="M318.449,257.787L318.449,269.787" style="fill:none;fill-rule:nonzero;stroke:black;stroke-width:15px;"/>
                    </g>
                    <path d="M311,504.5L311,429.4" style="fill:none;fill-rule:nonzero;stroke:black;stroke-width:15px;"/>
                    <path d="M361,399.75L361,504.5" style="fill:none;fill-rule:nonzero;stroke:black;stroke-width:15px;"/>
                    <rect x="311" y="444.5" width="50" height="30" style="fill:none;stroke:black;stroke-width:15px;"/>
                    <path d="M151,504.5L151,399.75" style="fill:none;fill-rule:nonzero;stroke:black;stroke-width:15px;"/>
                    <path d="M201,429.4L201,504.5" style="fill:none;fill-rule:nonzero;stroke:black;stroke-width:15px;"/>
                    <rect x="151" y="444.5" width="50" height="30" style="fill:none;stroke:black;stroke-width:15px;"/>
                    <path d="M316.365,311.05C300.861,284.925 273.276,284.459 260.389,290.588C257.603,291.913 254.398,291.913 251.612,290.588C238.724,284.459 211.14,284.925 195.636,311.05C188.422,323.205 174.383,333.491 162.343,340.659C153.641,345.84 155.952,358.998 165.896,360.92C184.185,364.454 206.723,363.48 222.826,353.079C234.669,345.906 242.453,337.587 247.564,329.488C251.476,323.289 260.525,323.289 264.437,329.488C269.548,337.587 277.332,345.906 289.175,353.079C305.217,363.482 327.802,364.452 346.11,360.919C356.053,359 358.365,345.842 349.663,340.662C337.622,333.494 323.58,323.206 316.365,311.05Z" style="fill:none;fill-rule:nonzero;stroke:black;stroke-width:15px;"/>
                    <path d="M213.57,37.5C219.74,20.02 236.41,7.5 256,7.5C268.42,7.5 279.68,12.54 287.82,20.68C292.51,25.37 296.18,31.1 298.43,37.5" style="fill:none;fill-rule:nonzero;stroke:black;stroke-width:15px;"/>
                    <path d="M191,64.28L191,57.5C191,46.45 199.95,37.5 211,37.5L301,37.5C312.05,37.5 321,46.45 321,57.5L321,64.28" style="fill:none;fill-rule:nonzero;stroke:black;stroke-width:15px;"/>
                    <g>
                        <path d="M324.462,136.196C329.515,136.381 333.68,132.217 333.494,127.164C333.289,121.57 331.757,114.236 326.112,108.591C320.466,102.945 313.132,101.414 307.539,101.209C302.486,101.024 298.321,105.188 298.507,110.241C298.712,115.835 300.244,123.169 305.889,128.814C311.534,134.46 318.868,135.991 324.462,136.196Z" style="fill:none;fill-rule:nonzero;stroke:black;stroke-width:15px;"/>
                        <path d="M187.538,136.196C182.485,136.381 178.32,132.217 178.506,127.164C178.711,121.57 180.243,114.236 185.888,108.591C191.534,102.945 198.868,101.414 204.461,101.209C209.514,101.024 213.679,105.188 213.493,110.241C213.288,115.835 211.756,123.169 206.111,128.814C200.466,134.46 193.132,135.991 187.538,136.196Z" style="fill:none;fill-rule:nonzero;stroke:black;stroke-width:15px;"/>
                        <ellipse cx="256" cy="110.836" rx="16" ry="17.866" style="fill:none;stroke:black;stroke-width:15px;"/>
                    </g>
                    <path d="M221.002,207.72L291.002,207.72" style="fill:none;fill-rule:nonzero;stroke:black;stroke-width:15px;"/>
                    <path d="M221.002,237.72L291.002,237.72" style="fill:none;fill-rule:nonzero;stroke:black;stroke-width:15px;"/>
                    <path d="M124.04,348.79C124.04,382.931 157.037,405.444 166.985,411.456C168.694,412.489 170.847,412.41 172.469,411.244C173.819,410.273 175.609,408.922 177.669,407.206C179.569,405.624 182.432,406.101 183.684,408.233C192.642,423.478 205.394,433.528 210.576,437.215C211.971,438.207 213.828,438.207 215.222,437.214C216.426,436.356 218.04,435.154 219.919,433.623C222.287,431.694 225.782,432.32 227.367,434.931C234.488,446.663 243.775,455.208 249.811,460.011C253.427,462.889 258.572,462.889 262.188,460.011C268.224,455.207 277.511,446.663 284.632,434.931C286.217,432.32 289.711,431.694 292.08,433.623C293.96,435.154 295.573,436.356 296.777,437.214C298.171,438.207 300.029,438.208 301.423,437.215C306.605,433.528 319.357,423.478 328.315,408.233C329.568,406.102 332.43,405.624 334.33,407.206C336.39,408.922 338.179,410.273 339.53,411.244C341.152,412.41 343.305,412.489 345.014,411.456C354.962,405.444 387.959,382.931 387.959,348.79" style="fill:none;fill-rule:nonzero;stroke:black;stroke-width:15px;"/>
                    <path d="M387.96,348.79L387.96,276.93C387.96,273.47 395.95,204.31 395.95,204.31" style="fill:none;fill-rule:nonzero;stroke:black;stroke-width:15px;"/>
                    <path d="M116.05,204.31C116.05,204.31 124.04,273.47 124.04,276.93L124.04,348.79" style="fill:none;fill-rule:nonzero;stroke:black;stroke-width:15px;"/>
                    <path d="M330.03,326.73L330.16,326.71C343.59,324.27 353.68,313.06 354.7,299.45L358.43,225.26" style="fill:none;fill-rule:nonzero;stroke:black;stroke-width:15px;"/>
                    <path d="M156.95,292.43L157.3,299.45C158.32,313.06 168.41,324.27 181.84,326.71L181.96,326.73" style="fill:none;fill-rule:nonzero;stroke:black;stroke-width:15px;"/>
                    <path d="M155.19,257.47L153.57,225.26" style="fill:none;fill-rule:nonzero;stroke:black;stroke-width:15px;"/>
                    <path d="M321,64.28C366.04,84.47 397.4,133.61 395.95,204.31L373.21,226.21C367.25,231.94 357.3,228.39 356.34,220.18L354.11,201.23C353.34,194.81 349.79,189.16 344.53,186.12C324.99,174.84 305.53,167.26 286.13,163.35C282.97,162.72 279.71,163.91 277.63,166.56C271.91,173.82 264.32,178.24 256,178.24C247.68,178.24 240.09,173.82 234.37,166.56C232.29,163.91 229.03,162.72 225.87,163.35C206.47,167.26 187.01,174.84 167.47,186.12C162.21,189.16 158.66,194.81 157.89,201.23L155.66,220.18C154.7,228.39 144.75,231.94 138.79,226.21L116.05,204.31C114.6,133.61 145.96,84.47 191,64.28" style="fill:none;fill-rule:nonzero;stroke:black;stroke-width:15px;"/>
                </g>
            </g>
        </g>
    </g>
    <g transform="matrix(1,0,0,1,0,11.5595)">
        <g transform="matrix(1.17013,0,0,1.17013,445.011,-823.008)">
            <path d="M43.354,815.527L33.803,815.527L33.803,848.739C30.356,846.694 25.39,844.942 18.905,843.481C12.83,842.079 7.572,841.378 3.132,841.378C-7.559,841.378 -16.527,843.277 -23.771,847.074C-27.86,849.236 -29.905,852.069 -29.905,855.574C-29.905,860.248 -27.451,862.585 -22.544,862.585C-19.565,862.585 -15.68,861.708 -10.889,859.956C-7.793,858.846 -3.82,857.444 1.029,855.75C3.073,855.049 6.695,854.698 11.895,854.698C22.002,854.698 29.538,857.824 34.504,864.074C36.899,867.054 38.096,870.559 38.096,874.59C38.096,883.879 32.254,891.182 20.57,896.498C15.721,898.718 11.106,899.974 6.725,900.266C10.931,904.472 14.933,906.575 18.73,906.575C19.957,906.575 21.271,906.4 22.673,906.05L31.524,920.509C29.713,922.086 26.003,922.875 20.395,922.875C15.838,922.875 11.982,921.327 8.828,918.23C7.134,916.536 4.738,913.002 1.642,907.627C-0.987,903.012 -3.178,900.675 -4.93,900.617C-15.738,900.324 -24.063,898.367 -29.905,894.745C-33.585,892.467 -35.426,889.341 -35.426,885.369C-35.426,880.461 -32.505,878.008 -26.663,878.008C-24.501,878.008 -19.988,879.687 -13.124,883.047C-6.259,886.406 -0.607,888.085 3.833,888.085C12.713,888.085 21.038,885.982 28.808,881.776C32.605,879.731 34.504,877.219 34.504,874.24C34.504,869.8 30.998,867.58 23.988,867.58C21.826,867.58 14.845,869.157 3.044,872.312C-3.908,874.181 -8.173,875.116 -9.75,875.116C-19.039,875.116 -26.692,870.734 -32.709,861.971C-35.63,857.765 -37.091,853.237 -37.091,848.389C-37.149,838.516 -30.402,831.856 -16.848,828.409C-11.298,827.007 -6.069,826.306 -1.162,826.306C4.446,826.306 12.391,827.679 22.673,830.424L22.673,815.527L-47.081,815.527L-47.081,805.011L43.354,805.011L43.354,815.527Z" style="fill-rule:nonzero;"/>
            <path d="M138.697,815.527L67.979,815.527L67.979,841.904C74.346,834.952 80.247,830.483 85.68,828.496C88.718,827.386 92.135,826.831 95.933,826.831C110.187,826.831 120.849,833.842 127.918,847.863C131.014,853.997 132.562,860.043 132.562,866.002C132.562,876.869 128.093,886.683 119.155,895.446C116.175,898.367 113.955,900.383 112.495,901.493L98.123,892.905C101.746,889.108 105.864,884.434 110.479,878.884C115.679,872.633 118.308,864.746 118.366,855.224C118.425,849.557 117.139,844.825 114.51,841.028C111.531,836.588 107.325,834.426 101.892,834.543C96.867,834.66 91.493,836.558 85.768,840.239C80.627,843.51 76.362,847.425 72.973,851.981C69.293,856.889 67.453,861.621 67.453,866.178L67.453,900.967L51.066,892.204L51.066,815.527L41.426,815.527L41.426,805.011L51.066,805.011C51.066,787.836 46.597,773.172 37.658,761.021C32.284,753.718 27.318,748.577 22.761,745.598L40.462,745.423C50.277,750.797 58.076,762.394 63.86,780.212C66.606,788.683 67.979,796.949 67.979,805.011L138.697,805.011L138.697,815.527Z" style="fill-rule:nonzero;"/>
            <path d="M176.465,815.527L167.176,815.527L167.176,805.011L176.465,805.011L176.465,815.527ZM146.496,815.527L136.506,815.527L136.506,805.011L146.496,805.011L146.496,815.527ZM164.285,794.408L164.285,902.281C163.7,902.106 162.941,901.785 162.006,901.318L157.449,898.952C152.25,896.264 149.504,894.921 149.212,894.921L149.212,794.583C149.212,788.449 148.015,781.935 145.619,775.042C142.289,765.402 137.119,756.639 130.109,748.752L124.588,742.531L143.253,742.531C152.951,752.228 159.319,764.117 162.357,778.196C163.642,784.155 164.285,789.559 164.285,794.408Z" style="fill-rule:nonzero;"/>
            <path d="M268.565,815.527L248.848,815.527L248.848,839.626C248.848,840.151 251.185,842.751 255.859,847.425C259.422,851.748 261.204,857.94 261.204,866.002C261.204,879.381 255.275,889.283 243.415,895.709C237.807,898.747 231.702,900.266 225.1,900.266C215.519,900.266 205.646,896.03 195.481,887.56C184.849,878.68 179.532,869.04 179.532,858.641C179.532,853.851 181.256,848.885 184.703,843.744C187.799,839.129 191.538,835.302 195.919,832.265C201.177,828.642 207.516,826.831 214.935,826.831C219.025,826.831 225.071,827.912 233.075,830.074C233.425,830.074 233.601,829.84 233.601,829.373L233.601,815.527L173.486,815.527L173.486,805.011L268.565,805.011L268.565,815.527ZM248.323,854.347C248.323,846.11 244.7,840.589 237.456,837.785C234.769,836.734 232.461,836.208 230.533,836.208C223.289,836.208 215.49,839.45 207.136,845.935C197.38,853.53 192.502,863.198 192.502,874.941C192.502,880.432 195.656,884.931 201.966,888.436C204.828,890.013 207.72,890.802 210.641,890.802C217.885,890.802 225.831,887.297 234.477,880.286C243.707,872.808 248.323,864.162 248.323,854.347Z" style="fill-rule:nonzero;"/>
            <path d="M348.66,815.527L291.174,815.527L291.174,838.136C294.621,836.15 300.258,833.55 308.087,830.337C311.3,829.46 315.185,829.022 319.742,829.022C325.993,829.022 331.572,830.746 336.479,834.192C341.971,837.99 344.716,842.897 344.716,848.914C344.716,857.035 340.072,862.935 330.783,866.616C326.927,868.135 323.597,868.894 320.793,868.894L341.123,893.606L329.994,901.668L298.71,864.513L304.494,852.507C307.59,853.384 310.832,853.822 314.221,853.822C319.187,853.822 323.247,852.653 326.401,850.316C329.965,847.746 331.747,844.065 331.747,839.275C331.747,834.601 328.417,832.265 321.757,832.265C317.083,832.265 312.118,834.514 306.86,839.012C303.121,842.225 299.703,846.11 296.607,850.667C292.868,856.159 290.999,860.861 290.999,864.776L290.999,901.493L275.926,894.745L275.926,815.527L264.797,815.527L264.797,805.011L275.4,805.011C275.4,788.245 272.363,774.311 266.287,763.212C265.118,761.05 262.869,757.808 259.539,753.485C256.385,749.337 254.194,746.036 252.967,743.582L270.756,743.582C274.203,746.795 277.766,752.082 281.447,759.443C287.698,771.945 290.823,787.135 290.823,805.011L348.66,805.011L348.66,815.527Z" style="fill-rule:nonzero;"/>
            <path d="M433.223,815.527L374.861,815.527L374.861,829.548C375.095,829.548 375.329,829.665 375.562,829.899C375.796,830.132 376,830.249 376.176,830.249C375.708,830.249 375.445,830.22 375.387,830.161C375.387,829.869 379.739,828.935 388.444,827.357C391.657,826.773 394.841,826.481 397.996,826.481C411.14,826.481 419.582,830.161 423.321,837.522C425.833,842.43 427.089,852.332 427.089,867.229L427.089,900.967C425.862,900.5 421.218,898.601 413.156,895.271C413.156,893.402 412.776,892.204 412.017,891.678C408.92,893.489 406.379,894.862 404.393,895.797C398.083,898.776 390.752,900.266 382.398,900.266C370.889,900.266 362.009,896.644 355.758,889.4C352.72,885.895 351.201,881.98 351.201,877.657C351.201,872.808 353.596,867.989 358.387,863.198C367.676,853.909 379.214,849.265 393.001,849.265C401.355,849.265 408.073,851.193 413.156,855.049L413.156,846.987C410.585,843.715 408.088,841.524 405.663,840.414C403.239,839.304 399.924,838.808 395.717,838.924C386.312,839.1 377.695,840.823 369.866,844.095C366.361,845.555 362.944,846.87 359.614,848.038L359.614,841.553C360.373,840.911 361.483,839.947 362.944,838.662C363.177,838.369 363.323,838.194 363.382,838.136L363.382,815.527L345.417,815.527L345.417,805.011L433.223,805.011L433.223,815.527ZM413.156,870.997C413.156,868.427 410.089,866.119 403.955,864.074C398.872,862.38 394.637,861.533 391.248,861.533C378.922,861.533 369.048,865.973 361.629,874.853C358.65,878.417 357.16,881.338 357.16,883.616C358.387,887.881 363.206,890.013 371.619,890.013C382.485,890.013 392.417,887.297 401.413,881.864C409.242,877.131 413.156,873.509 413.156,870.997Z" style="fill-rule:nonzero;"/>
            <path d="M521.906,815.527L512.354,815.527L512.354,848.739C508.907,846.694 503.941,844.942 497.457,843.481C491.381,842.079 486.123,841.378 481.683,841.378C470.992,841.378 462.025,843.277 454.78,847.074C450.691,849.236 448.646,852.069 448.646,855.574C448.646,860.248 451.1,862.585 456.007,862.585C458.987,862.585 462.872,861.708 467.662,859.956C470.758,858.846 474.731,857.444 479.58,855.75C481.625,855.049 485.247,854.698 490.446,854.698C500.553,854.698 508.089,857.824 513.055,864.074C515.45,867.054 516.648,870.559 516.648,874.59C516.648,883.879 510.806,891.182 499.122,896.498C494.273,898.718 489.658,899.974 485.276,900.266C489.482,904.472 493.484,906.575 497.281,906.575C498.508,906.575 499.823,906.4 501.225,906.05L510.075,920.509C508.264,922.086 504.555,922.875 498.946,922.875C494.39,922.875 490.534,921.327 487.379,918.23C485.685,916.536 483.29,913.002 480.193,907.627C477.564,903.012 475.374,900.675 473.621,900.617C462.813,900.324 454.488,898.367 448.646,894.745C444.966,892.467 443.126,889.341 443.126,885.369C443.126,880.461 446.047,878.008 451.889,878.008C454.05,878.008 458.563,879.687 465.428,883.047C472.292,886.406 477.944,888.085 482.384,888.085C491.264,888.085 499.589,885.982 507.359,881.776C511.156,879.731 513.055,877.219 513.055,874.24C513.055,869.8 509.55,867.58 502.539,867.58C500.378,867.58 493.396,869.157 481.595,872.312C474.643,874.181 470.379,875.116 468.801,875.116C459.513,875.116 451.859,870.734 445.842,861.971C442.921,857.765 441.461,853.237 441.461,848.389C441.402,838.516 448.15,831.856 461.703,828.409C467.253,827.007 472.482,826.306 477.389,826.306C482.998,826.306 490.943,827.679 501.225,830.424L501.225,815.527L431.471,815.527L431.471,805.011L521.906,805.011L521.906,815.527Z" style="fill-rule:nonzero;"/>
        </g>
        <g transform="matrix(1.17013,0,0,1.17013,624.071,-840.498)">
            <path d="M-152.918,969.507L-155.186,966.396C-155.449,966.202 -155.717,966.062 -155.99,965.974C-156.262,965.886 -156.557,965.842 -156.873,965.842C-157.963,965.842 -158.864,966.185 -159.576,966.87C-160.288,967.556 -160.644,968.417 -160.644,969.454C-160.644,970.738 -159.325,972.39 -156.689,974.411L-156.583,974.491C-156.425,974.614 -156.179,974.798 -155.845,975.044C-152.716,977.435 -151.152,979.623 -151.152,981.61C-151.152,984.018 -152.074,986.004 -153.92,987.569C-155.766,989.133 -158.13,989.915 -161.013,989.915C-163.228,989.915 -164.981,989.489 -166.273,988.637C-167.565,987.784 -168.211,986.628 -168.211,985.169C-168.211,984.343 -167.952,983.68 -167.433,983.179C-166.915,982.678 -166.234,982.427 -165.39,982.427C-165.038,982.427 -164.678,982.502 -164.309,982.651C-163.94,982.801 -163.527,983.051 -163.07,983.403L-164.045,986.092C-163.623,986.707 -163.078,987.178 -162.41,987.503C-161.742,987.828 -160.995,987.991 -160.169,987.991C-158.622,987.991 -157.414,987.582 -156.544,986.765C-155.674,985.947 -155.238,984.827 -155.238,983.403C-155.238,982.594 -155.476,981.847 -155.95,981.161C-156.425,980.476 -157.436,979.544 -158.983,978.367L-159.22,978.182C-162.472,975.739 -164.098,973.533 -164.098,971.564C-164.098,969.331 -163.193,967.415 -161.382,965.816C-159.571,964.216 -157.383,963.416 -154.817,963.416C-153.322,963.416 -152.11,963.728 -151.178,964.352C-150.246,964.976 -149.78,965.781 -149.78,966.765C-149.78,967.556 -150.062,968.198 -150.624,968.69C-151.187,969.182 -151.951,969.454 -152.918,969.507Z" style="fill-rule:nonzero;"/>
            <path d="M-140.868,985.828C-140.06,986.321 -139.273,986.685 -138.508,986.923C-137.744,987.16 -136.984,987.279 -136.228,987.279C-135.032,987.279 -133.934,987.006 -132.932,986.461C-131.93,985.916 -131.016,985.09 -130.19,983.983C-129.223,982.7 -128.432,981.038 -127.817,978.999C-127.201,976.96 -126.894,974.93 -126.894,972.909C-126.894,970.834 -127.329,969.2 -128.199,968.004C-129.069,966.809 -130.251,966.211 -131.745,966.211C-132.554,966.211 -133.455,966.449 -134.448,966.923C-135.441,967.398 -136.562,968.119 -137.81,969.085L-140.868,985.828ZM-138.179,963.416L-136.781,963.416L-137.414,966.712C-135.867,965.605 -134.413,964.779 -133.05,964.234C-131.688,963.689 -130.427,963.416 -129.267,963.416C-127.087,963.416 -125.4,964.234 -124.204,965.869C-123.009,967.503 -122.411,969.815 -122.411,972.803C-122.411,975.141 -122.789,977.307 -123.545,979.303C-124.301,981.298 -125.452,983.148 -126.999,984.853C-128.37,986.365 -129.961,987.542 -131.772,988.386C-133.582,989.23 -135.41,989.652 -137.256,989.652C-137.924,989.652 -138.605,989.568 -139.299,989.401C-139.994,989.234 -140.701,988.975 -141.422,988.623L-143.189,998.669L-138.073,999.592L-138.073,1001.2L-151.02,1001.2L-151.02,999.592L-147.829,998.933L-147.302,998.353L-141.633,966.923L-145.852,966.396L-145.852,965.025L-138.179,963.416Z" style="fill-rule:nonzero;"/>
            <path d="M-109.65,963.416L-108.252,963.416L-112.128,983.587C-112.198,983.921 -112.247,984.198 -112.273,984.418C-112.299,984.638 -112.313,984.818 -112.313,984.958C-112.313,985.644 -112.093,986.167 -111.653,986.527C-111.214,986.888 -110.564,987.068 -109.702,987.068C-109.21,987.068 -108.634,987.002 -107.975,986.87C-107.316,986.738 -106.565,986.532 -105.721,986.25L-105.721,987.938C-107.215,988.553 -108.599,989.019 -109.874,989.335C-111.148,989.652 -112.304,989.81 -113.341,989.81C-114.484,989.81 -115.345,989.515 -115.925,988.927C-116.505,988.338 -116.795,987.446 -116.795,986.25C-116.795,985.916 -116.764,985.512 -116.703,985.037C-116.641,984.563 -116.558,984.036 -116.452,983.455L-113.288,967.345L-117.639,966.554L-117.639,965.13L-109.65,963.416ZM-108.569,951.419C-107.795,951.419 -107.118,951.709 -106.538,952.289C-105.958,952.869 -105.668,953.555 -105.668,954.346C-105.668,955.137 -105.954,955.818 -106.525,956.39C-107.096,956.961 -107.778,957.246 -108.569,957.246C-109.395,957.246 -110.089,956.97 -110.652,956.416C-111.214,955.862 -111.495,955.172 -111.495,954.346C-111.495,953.537 -111.21,952.848 -110.638,952.276C-110.067,951.705 -109.377,951.419 -108.569,951.419Z" style="fill-rule:nonzero;"/>
            <path d="M-94.383,963.416L-93.302,963.416L-95.016,970.799C-93.346,968.444 -91.676,966.624 -90.006,965.341C-88.336,964.058 -86.807,963.416 -85.418,963.416C-84.504,963.416 -83.77,963.676 -83.216,964.194C-82.663,964.713 -82.386,965.385 -82.386,966.211C-82.386,967.266 -82.716,968.114 -83.375,968.756C-84.034,969.397 -84.908,969.718 -85.998,969.718L-86.367,969.718L-87.791,966.818C-90.182,967.749 -91.97,968.945 -93.157,970.404C-94.343,971.863 -95.183,973.981 -95.675,976.758L-97.89,989.441L-102.425,989.441L-97.943,967.345L-102.372,966.554L-102.372,965.183L-94.383,963.416Z" style="fill-rule:nonzero;"/>
            <path d="M-72.656,963.416L-71.259,963.416L-75.135,983.587C-75.205,983.921 -75.254,984.198 -75.28,984.418C-75.306,984.638 -75.32,984.818 -75.32,984.958C-75.32,985.644 -75.1,986.167 -74.66,986.527C-74.221,986.888 -73.57,987.068 -72.709,987.068C-72.217,987.068 -71.641,987.002 -70.982,986.87C-70.323,986.738 -69.571,986.532 -68.728,986.25L-68.728,987.938C-70.222,988.553 -71.606,989.019 -72.881,989.335C-74.155,989.652 -75.311,989.81 -76.348,989.81C-77.49,989.81 -78.352,989.515 -78.932,988.927C-79.512,988.338 -79.802,987.446 -79.802,986.25C-79.802,985.916 -79.771,985.512 -79.71,985.037C-79.648,984.563 -79.565,984.036 -79.459,983.455L-76.295,967.345L-80.646,966.554L-80.646,965.13L-72.656,963.416ZM-71.575,951.419C-70.802,951.419 -70.125,951.709 -69.545,952.289C-68.965,952.869 -68.675,953.555 -68.675,954.346C-68.675,955.137 -68.961,955.818 -69.532,956.39C-70.103,956.961 -70.784,957.246 -71.575,957.246C-72.402,957.246 -73.096,956.97 -73.658,956.416C-74.221,955.862 -74.502,955.172 -74.502,954.346C-74.502,953.537 -74.216,952.848 -73.645,952.276C-73.074,951.705 -72.384,951.419 -71.575,951.419Z" style="fill-rule:nonzero;"/>
            <path d="M-57.917,958.169L-55.439,958.169L-56.572,964.339L-48.794,964.339L-48.794,966.66L-56.994,966.66L-59.816,981.082C-59.833,981.205 -59.86,981.372 -59.895,981.583C-60.053,982.497 -60.132,983.121 -60.132,983.455C-60.132,984.545 -59.851,985.376 -59.288,985.947C-58.726,986.518 -57.908,986.804 -56.836,986.804C-56.238,986.804 -55.513,986.712 -54.661,986.527C-53.808,986.343 -52.82,986.075 -51.695,985.723L-51.695,987.437C-53.523,988.228 -55.131,988.821 -56.52,989.217C-57.908,989.612 -59.077,989.81 -60.027,989.81C-61.556,989.81 -62.694,989.406 -63.441,988.597C-64.188,987.788 -64.562,986.558 -64.562,984.906C-64.562,984.396 -64.527,983.829 -64.456,983.205C-64.386,982.581 -64.28,981.944 -64.14,981.293L-61.213,966.66L-64.562,966.923L-64.562,965.315L-60.607,963.575L-57.917,958.169Z" style="fill-rule:nonzero;"/>
            <path d="M-38.854,963.364L-37.984,964.102L-41.385,979.817C-41.596,980.819 -41.75,981.64 -41.846,982.282C-41.943,982.924 -41.991,983.438 -41.991,983.825C-41.991,984.756 -41.715,985.486 -41.161,986.013C-40.607,986.54 -39.838,986.804 -38.854,986.804C-37.799,986.804 -36.604,986.505 -35.268,985.908C-33.932,985.31 -32.57,984.475 -31.181,983.403L-27.147,963.891L-22.77,963.891L-26.593,981.504C-26.611,981.592 -26.646,981.742 -26.698,981.952C-26.997,983.429 -27.147,984.501 -27.147,985.169C-27.147,985.767 -26.883,986.268 -26.356,986.672C-25.828,987.077 -25.152,987.279 -24.325,987.279C-23.991,987.279 -23.574,987.23 -23.073,987.134C-22.572,987.037 -21.979,986.892 -21.293,986.699L-21.293,988.202C-22.875,988.782 -24.229,989.203 -25.354,989.467C-26.479,989.731 -27.437,989.863 -28.228,989.863C-29.335,989.863 -30.148,989.586 -30.667,989.032C-31.185,988.478 -31.445,987.604 -31.445,986.409C-31.445,986.145 -31.44,985.938 -31.431,985.789C-31.423,985.64 -31.418,985.512 -31.418,985.407C-33.194,986.883 -34.894,987.995 -36.52,988.742C-38.146,989.489 -39.697,989.863 -41.174,989.863C-42.809,989.863 -44.092,989.414 -45.024,988.518C-45.955,987.621 -46.421,986.382 -46.421,984.8C-46.421,984.378 -46.386,983.904 -46.316,983.376C-46.245,982.849 -46.131,982.243 -45.973,981.557L-42.862,967.345L-47.344,966.554L-47.344,965.13L-38.854,963.364Z" style="fill-rule:nonzero;"/>
            <path d="M-1.966,965.526L-2.704,965.526C-5.903,965.526 -8.531,966.901 -10.588,969.652C-12.645,972.403 -13.673,975.906 -13.673,980.16C-13.673,982.322 -13.282,983.943 -12.5,985.024C-11.717,986.105 -10.544,986.646 -8.98,986.646C-7.96,986.646 -6.923,986.347 -5.868,985.749C-4.814,985.152 -3.724,984.255 -2.599,983.06L0.196,968.822L-1.966,965.526ZM3.07,963.416L5.865,963.416C5.584,963.996 5.272,964.941 4.929,966.251C4.586,967.56 4.213,969.191 3.808,971.142L1.884,980.687C1.708,981.531 1.572,982.273 1.475,982.915C1.378,983.556 1.33,984.079 1.33,984.484C1.33,985.327 1.563,985.952 2.029,986.356C2.494,986.76 3.237,986.962 4.257,986.962C4.468,986.962 4.753,986.931 5.114,986.87C5.474,986.808 6.19,986.655 7.263,986.409L7.263,988.043C5.751,988.676 4.446,989.146 3.347,989.454C2.248,989.762 1.347,989.915 0.644,989.915C-0.481,989.915 -1.311,989.581 -1.847,988.913C-2.383,988.245 -2.652,987.217 -2.652,985.828L-2.652,985.38C-4.111,986.927 -5.499,988.07 -6.818,988.808C-8.136,989.546 -9.437,989.915 -10.72,989.915C-13.023,989.915 -14.838,989.08 -16.165,987.411C-17.492,985.741 -18.155,983.429 -18.155,980.476C-18.155,978.701 -17.923,976.978 -17.457,975.308C-16.991,973.638 -16.292,972.03 -15.361,970.483C-13.972,968.198 -12.205,966.449 -10.061,965.236C-7.916,964.023 -5.526,963.416 -2.889,963.416C-2.098,963.416 -1.289,963.517 -0.463,963.72C0.363,963.922 1.18,964.216 1.989,964.603L3.07,963.416Z" style="fill-rule:nonzero;"/>
            <path d="M20.71,949.705L22.16,949.705C22.002,950.567 21.866,951.314 21.751,951.947C21.637,952.579 21.562,953.001 21.527,953.212L16.069,980.37C15.876,981.32 15.731,982.177 15.634,982.941C15.537,983.706 15.489,984.308 15.489,984.747C15.489,985.574 15.74,986.202 16.241,986.633C16.742,987.063 17.475,987.279 18.442,987.279C18.864,987.279 19.387,987.208 20.011,987.068C20.635,986.927 21.395,986.707 22.292,986.409L22.292,988.096C20.868,988.694 19.541,989.146 18.31,989.454C17.08,989.762 16.008,989.915 15.094,989.915C13.775,989.915 12.791,989.586 12.14,988.927C11.49,988.267 11.165,987.27 11.165,985.934C11.165,985.547 11.248,984.822 11.415,983.759C11.582,982.695 11.824,981.346 12.14,979.711L17.308,953.265L12.51,952.711L12.51,951.314L20.71,949.705Z" style="fill-rule:nonzero;"/>
            <path d="M33.893,963.416L35.291,963.416L31.415,983.587C31.345,983.921 31.296,984.198 31.27,984.418C31.243,984.638 31.23,984.818 31.23,984.958C31.23,985.644 31.45,986.167 31.889,986.527C32.329,986.888 32.979,987.068 33.841,987.068C34.333,987.068 34.909,987.002 35.568,986.87C36.227,986.738 36.978,986.532 37.822,986.25L37.822,987.938C36.328,988.553 34.944,989.019 33.669,989.335C32.395,989.652 31.239,989.81 30.202,989.81C29.059,989.81 28.198,989.515 27.618,988.927C27.038,988.338 26.748,987.446 26.748,986.25C26.748,985.916 26.779,985.512 26.84,985.037C26.902,984.563 26.985,984.036 27.091,983.455L30.255,967.345L25.904,966.554L25.904,965.13L33.893,963.416ZM34.974,951.419C35.748,951.419 36.425,951.709 37.005,952.289C37.585,952.869 37.875,953.555 37.875,954.346C37.875,955.137 37.589,955.818 37.018,956.39C36.447,956.961 35.765,957.246 34.974,957.246C34.148,957.246 33.454,956.97 32.891,956.416C32.329,955.862 32.048,955.172 32.048,954.346C32.048,953.537 32.333,952.848 32.905,952.276C33.476,951.705 34.166,951.419 34.974,951.419Z" style="fill-rule:nonzero;"/>
            <path d="M59.76,962.968L63.055,964.708L44.414,985.486L49.661,984.141C50.979,984.739 52.1,985.187 53.023,985.486C53.946,985.785 54.662,985.934 55.172,985.934C55.857,985.934 56.477,985.771 57.031,985.446C57.584,985.121 58.081,984.633 58.52,983.983L55.541,980.687C55.91,980.054 56.319,979.571 56.767,979.237C57.215,978.903 57.668,978.736 58.125,978.736C58.898,978.736 59.535,979.039 60.036,979.645C60.537,980.252 60.788,981.03 60.788,981.979C60.788,983.895 60.019,985.635 58.481,987.2C56.943,988.764 55.207,989.546 53.273,989.546C52.201,989.546 50.738,989.16 48.883,988.386C47.029,987.613 45.688,987.226 44.862,987.226C44.563,987.226 44.278,987.265 44.005,987.345C43.733,987.424 43.438,987.542 43.122,987.701L41.83,990.047L38.85,988.412L57.439,967.582L52.087,968.769C51.085,968.242 50.184,967.846 49.384,967.582C48.584,967.319 47.903,967.187 47.341,967.187C46.638,967.187 45.996,967.336 45.416,967.635C44.836,967.934 44.344,968.365 43.939,968.927L46.787,972.381C46.453,972.961 46.079,973.392 45.666,973.673C45.253,973.954 44.783,974.095 44.256,974.095C43.482,974.095 42.867,973.809 42.41,973.238C41.953,972.667 41.724,971.898 41.724,970.931C41.724,969.015 42.476,967.275 43.979,965.71C45.482,964.146 47.156,963.364 49.002,963.364C50.092,963.364 51.568,963.847 53.431,964.814C54.451,965.324 55.211,965.658 55.712,965.816C56.213,965.974 56.683,966.053 57.123,966.053C57.334,966.053 57.576,966.018 57.848,965.948C58.12,965.877 58.415,965.772 58.731,965.631L59.76,962.968Z" style="fill-rule:nonzero;"/>
            <path d="M69.067,977.444C68.997,977.813 68.949,978.208 68.922,978.63C68.896,979.052 68.883,979.492 68.883,979.949C68.883,982.111 69.384,983.82 70.386,985.077C71.388,986.334 72.759,986.962 74.499,986.962C75.764,986.962 77.136,986.584 78.612,985.828C80.089,985.073 81.6,983.974 83.147,982.533L83.147,985.064C81.477,986.663 79.763,987.872 78.006,988.689C76.248,989.507 74.464,989.915 72.653,989.915C70.087,989.915 68.087,989.054 66.655,987.331C65.222,985.609 64.506,983.201 64.506,980.107C64.506,977.839 64.928,975.624 65.771,973.462C66.615,971.3 67.793,969.428 69.305,967.846C70.623,966.493 72.086,965.416 73.695,964.616C75.303,963.816 76.81,963.416 78.217,963.416C79.922,963.416 81.275,963.9 82.277,964.867C83.279,965.833 83.78,967.134 83.78,968.769C83.78,971.16 82.479,973.128 79.878,974.675C77.276,976.222 73.673,977.145 69.067,977.444ZM69.305,975.624C72.451,975.449 75.004,974.697 76.964,973.37C78.924,972.043 79.904,970.448 79.904,968.584C79.904,967.758 79.632,967.068 79.087,966.515C78.542,965.961 77.874,965.684 77.083,965.684C75.43,965.684 73.906,966.567 72.508,968.334C71.111,970.1 70.043,972.531 69.305,975.624Z" style="fill-rule:nonzero;"/>
            <path d="M105.718,963.258C105.805,963.241 105.902,963.227 106.008,963.219C106.113,963.21 106.263,963.205 106.456,963.205C108.548,963.205 110.209,966.387 111.439,972.75C111.615,973.647 111.747,974.324 111.835,974.781L113.628,983.93C114.77,981.012 116.049,977.844 117.464,974.425C118.879,971.006 120.43,967.336 122.118,963.416L123.12,963.416L127.391,964.814L127.391,965.948L124.649,967.582C123.067,969.34 121.186,972.61 119.007,977.391C116.827,982.172 115.175,985.574 114.05,987.595C111.606,992.06 109.172,995.435 106.746,997.72C104.32,1000 101.973,1001.15 99.706,1001.15C98.405,1001.15 97.324,1000.81 96.463,1000.12C95.601,999.434 95.171,998.59 95.171,997.588C95.171,996.85 95.439,996.204 95.975,995.65C96.511,995.097 97.21,994.758 98.071,994.635L101.262,997.799C102.861,997.694 104.426,996.876 105.955,995.347C107.484,993.818 109.066,991.471 110.701,988.307L110.543,988.412L107.194,972.17C106.948,970.922 106.649,969.832 106.298,968.901C105.946,967.969 105.524,967.187 105.032,966.554L100.444,966.159L100.444,964.972L105.718,963.258Z" style="fill-rule:nonzero;"/>
            <path d="M141.287,965.473C138.879,965.473 136.844,966.835 135.183,969.56C133.522,972.285 132.691,975.668 132.691,979.711C132.691,982.26 133.153,984.229 134.076,985.618C134.998,987.006 136.286,987.701 137.938,987.701C140.311,987.701 142.342,986.343 144.029,983.627C145.717,980.911 146.56,977.576 146.56,973.62C146.56,971.019 146.103,969.011 145.189,967.596C144.275,966.181 142.974,965.473 141.287,965.473ZM141.972,963.364C144.803,963.364 147.044,964.313 148.696,966.211C150.348,968.11 151.175,970.685 151.175,973.937C151.175,976.064 150.797,978.125 150.041,980.12C149.285,982.115 148.204,983.93 146.798,985.565C145.532,987.006 144.099,988.092 142.5,988.821C140.9,989.551 139.16,989.915 137.279,989.915C134.484,989.915 132.256,988.988 130.595,987.134C128.934,985.279 128.103,982.787 128.103,979.659C128.103,977.496 128.486,975.374 129.25,973.291C130.015,971.208 131.074,969.393 132.428,967.846C133.728,966.369 135.192,965.253 136.818,964.497C138.444,963.742 140.162,963.364 141.972,963.364Z" style="fill-rule:nonzero;"/>
            <path d="M164.121,963.364L164.991,964.102L161.59,979.817C161.379,980.819 161.225,981.64 161.128,982.282C161.032,982.924 160.983,983.438 160.983,983.825C160.983,984.756 161.26,985.486 161.814,986.013C162.367,986.54 163.137,986.804 164.121,986.804C165.176,986.804 166.371,986.505 167.707,985.908C169.043,985.31 170.405,984.475 171.794,983.403L175.828,963.891L180.205,963.891L176.382,981.504C176.364,981.592 176.329,981.742 176.276,981.952C175.977,983.429 175.828,984.501 175.828,985.169C175.828,985.767 176.092,986.268 176.619,986.672C177.146,987.077 177.823,987.279 178.649,987.279C178.983,987.279 179.401,987.23 179.902,987.134C180.403,987.037 180.996,986.892 181.681,986.699L181.681,988.202C180.099,988.782 178.746,989.203 177.621,989.467C176.496,989.731 175.538,989.863 174.747,989.863C173.639,989.863 172.826,989.586 172.308,989.032C171.789,988.478 171.53,987.604 171.53,986.409C171.53,986.145 171.534,985.938 171.543,985.789C171.552,985.64 171.556,985.512 171.556,985.407C169.781,986.883 168.08,987.995 166.454,988.742C164.828,989.489 163.277,989.863 161.801,989.863C160.166,989.863 158.883,989.414 157.951,988.518C157.019,987.621 156.554,986.382 156.554,984.8C156.554,984.378 156.589,983.904 156.659,983.376C156.729,982.849 156.844,982.243 157.002,981.557L160.113,967.345L155.631,966.554L155.631,965.13L164.121,963.364Z" style="fill-rule:nonzero;"/>
            <path d="M193.441,963.416L194.522,963.416L192.808,970.799C194.478,968.444 196.148,966.624 197.818,965.341C199.488,964.058 201.017,963.416 202.406,963.416C203.32,963.416 204.054,963.676 204.608,964.194C205.161,964.713 205.438,965.385 205.438,966.211C205.438,967.266 205.109,968.114 204.45,968.756C203.79,969.397 202.916,969.718 201.826,969.718L201.457,969.718L200.033,966.818C197.642,967.749 195.854,968.945 194.667,970.404C193.481,971.863 192.641,973.981 192.149,976.758L189.934,989.441L185.399,989.441L189.882,967.345L185.452,966.554L185.452,965.183L193.441,963.416Z" style="fill-rule:nonzero;"/>
            <path d="M230.171,963.416L231.515,963.416L230.54,968.532C232.597,966.844 234.486,965.57 236.209,964.708C237.931,963.847 239.443,963.416 240.744,963.416C242.115,963.416 243.179,963.838 243.934,964.682C244.69,965.526 245.086,966.739 245.121,968.321C247.055,966.703 248.856,965.482 250.526,964.656C252.196,963.829 253.69,963.416 255.009,963.416C256.345,963.416 257.417,963.834 258.225,964.669C259.034,965.504 259.438,966.616 259.438,968.004C259.438,968.602 259.381,969.279 259.267,970.035C259.153,970.79 258.99,971.625 258.779,972.539L256.933,980.924L256.907,981.056C256.538,982.744 256.353,983.869 256.353,984.431C256.353,985.275 256.595,985.934 257.078,986.409C257.562,986.883 258.234,987.12 259.096,987.12C259.482,987.12 259.93,987.081 260.44,987.002C260.95,986.923 261.513,986.804 262.128,986.646L262.128,988.096C260.616,988.659 259.333,989.076 258.278,989.348C257.223,989.621 256.345,989.757 255.641,989.757C254.305,989.757 253.317,989.494 252.675,988.966C252.034,988.439 251.713,987.621 251.713,986.514C251.713,986.215 251.748,985.82 251.818,985.327C251.888,984.835 251.994,984.264 252.135,983.614L254.455,973.62C254.613,972.97 254.736,972.346 254.824,971.748C254.912,971.151 254.956,970.623 254.956,970.166C254.956,969.024 254.732,968.162 254.284,967.582C253.835,967.002 253.172,966.712 252.293,966.712C251.185,966.712 249.977,967.099 248.667,967.872C247.358,968.646 246.123,969.718 244.963,971.089L241.456,989.441L236.973,989.441L240.217,973.594C240.375,972.733 240.493,971.994 240.573,971.379C240.652,970.764 240.691,970.272 240.691,969.903C240.691,968.883 240.432,968.097 239.913,967.543C239.395,966.989 238.661,966.712 237.712,966.712C236.903,966.712 235.8,967.108 234.403,967.899C233.005,968.69 231.559,969.771 230.065,971.142L226.664,989.441L222.129,989.441L226.611,967.398L222.181,966.554L222.181,965.13L230.171,963.416Z" style="fill-rule:nonzero;"/>
            <path d="M274.178,963.416L275.575,963.416L271.699,983.587C271.629,983.921 271.58,984.198 271.554,984.418C271.528,984.638 271.514,984.818 271.514,984.958C271.514,985.644 271.734,986.167 272.174,986.527C272.613,986.888 273.263,987.068 274.125,987.068C274.617,987.068 275.193,987.002 275.852,986.87C276.511,986.738 277.263,986.532 278.106,986.25L278.106,987.938C276.612,988.553 275.228,989.019 273.953,989.335C272.679,989.652 271.523,989.81 270.486,989.81C269.344,989.81 268.482,989.515 267.902,988.927C267.322,988.338 267.032,987.446 267.032,986.25C267.032,985.916 267.063,985.512 267.124,985.037C267.186,984.563 267.269,984.036 267.375,983.455L270.539,967.345L266.188,966.554L266.188,965.13L274.178,963.416ZM275.259,951.419C276.032,951.419 276.709,951.709 277.289,952.289C277.869,952.869 278.159,953.555 278.159,954.346C278.159,955.137 277.873,955.818 277.302,956.39C276.731,956.961 276.05,957.246 275.259,957.246C274.432,957.246 273.738,956.97 273.176,956.416C272.613,955.862 272.332,955.172 272.332,954.346C272.332,953.537 272.617,952.848 273.189,952.276C273.76,951.705 274.45,951.419 275.259,951.419Z" style="fill-rule:nonzero;"/>
            <path d="M289.681,963.416L291.026,963.416L290.051,968.584C292.301,966.809 294.269,965.504 295.957,964.669C297.644,963.834 299.165,963.416 300.518,963.416C301.925,963.416 303.032,963.803 303.841,964.577C304.649,965.35 305.054,966.405 305.054,967.741C305.054,968.233 305.005,968.804 304.909,969.454C304.812,970.105 304.614,971.133 304.315,972.539L302.47,980.898C302.452,981.021 302.417,981.197 302.364,981.425C302.048,982.972 301.889,983.992 301.889,984.484C301.889,985.327 302.131,985.978 302.615,986.435C303.098,986.892 303.788,987.12 304.684,987.12C305.054,987.12 305.48,987.081 305.963,987.002C306.447,986.923 307.005,986.804 307.638,986.646L307.664,988.149C306.258,988.694 305.014,989.098 303.933,989.362C302.852,989.625 301.933,989.757 301.178,989.757C299.859,989.757 298.87,989.489 298.211,988.953C297.552,988.417 297.222,987.604 297.222,986.514C297.222,986.18 297.262,985.767 297.341,985.275C297.42,984.783 297.53,984.229 297.671,983.614L299.991,973.62C300.149,972.952 300.268,972.324 300.347,971.735C300.426,971.146 300.466,970.623 300.466,970.166C300.466,968.971 300.237,968.105 299.78,967.569C299.323,967.033 298.585,966.765 297.565,966.765C296.563,966.765 295.364,967.152 293.966,967.925C292.569,968.699 291.105,969.788 289.576,971.195L286.227,989.441L281.639,989.441L286.122,967.345L281.692,966.554L281.692,965.183L289.681,963.416Z" style="fill-rule:nonzero;"/>
            <path d="M326.833,965.473C326.71,965.455 326.503,965.425 326.213,965.381C325.923,965.337 325.699,965.315 325.541,965.315C322.851,965.315 320.496,966.756 318.474,969.639C316.453,972.522 315.442,976.046 315.442,980.212C315.442,982.286 315.855,983.912 316.681,985.09C317.508,986.268 318.641,986.857 320.083,986.857C321.138,986.857 322.263,986.457 323.458,985.657C324.653,984.857 325.831,983.728 326.991,982.269L329.417,968.532L326.833,965.473ZM335.587,949.705L336.984,949.705L331.21,982.032C331.104,982.612 331.025,983.152 330.972,983.653C330.92,984.154 330.893,984.589 330.893,984.958C330.893,985.732 331.087,986.303 331.473,986.672C331.86,987.041 332.458,987.226 333.266,987.226C333.583,987.226 334.027,987.178 334.598,987.081C335.169,986.984 335.894,986.839 336.773,986.646L336.773,988.254C335.367,988.764 334.097,989.151 332.963,989.414C331.829,989.678 330.885,989.81 330.129,989.81C328.881,989.81 327.967,989.502 327.387,988.887C326.806,988.272 326.516,987.305 326.516,985.987C326.516,985.705 326.521,985.486 326.53,985.327C326.538,985.169 326.552,985.029 326.569,984.906C325.268,986.558 323.902,987.806 322.469,988.65C321.036,989.494 319.591,989.915 318.132,989.915C315.934,989.915 314.207,989.063 312.951,987.358C311.694,985.653 311.065,983.288 311.065,980.265C311.065,978.437 311.289,976.697 311.738,975.044C312.186,973.392 312.841,971.871 313.702,970.483C315.126,968.25 316.932,966.479 319.12,965.17C321.309,963.86 323.555,963.205 325.857,963.205C326.631,963.205 327.369,963.28 328.072,963.43C328.775,963.579 329.478,963.803 330.181,964.102L332.08,953.318L327.307,952.764L327.307,951.261L335.587,949.705Z" style="fill-rule:nonzero;"/>
        </g>
    </g>
</svg>
